<svg xmlns="http://www.w3.org/2000/svg" version="1.2" viewBox="0 0 200 200" width="200" height="200"><path d="m78.49 95.51 3.22 12.95c.07 0 .13-.02.2-.02.26 0 .51.04.76.07l7.56-19.44c-.6-.37-1.1-.88-1.47-1.48l-7.65 2.92c.05.27.09.53.09.81 0 1.86-1.12 3.46-2.71 4.19m25.87-9.48h-7.12a4.64 4.64 0 0 1-2.33 3.17l5.85 18.16c.19-.02.38-.06.57-.06s.36.03.54.06l5.66-17.81a5.76 5.76 0 0 1-3.17-3.52M84.4 130.48c-.37-1.82-.82-4.02-1.27-6.25-.47-2.34-.94-4.68-1.32-6.54a4.63 4.63 0 0 1-4.18-2.86l-4.58 1.15c.74 5.37 1.27 11.61 1.33 18.69l7.16-.47a4.63 4.63 0 0 1 2.86-3.72m-.1-21.36c.98.59 1.71 1.53 2.04 2.65l10.41-.49c.22-1.47 1.11-2.7 2.36-3.39l-5.86-18.16c-.19.03-.37.06-.56.06-.29 0-.56-.03-.84-.08zm8.39 37.76c1.01 0 2 .14 2.95.37l2.9-9.01c-.92-.7-1.57-1.72-1.77-2.89l-6.09.16c-.24 1.51-1.22 2.76-2.55 3.41l2.2 8.19c.76-.15 1.55-.23 2.36-.23m13.19-34.08a4.63 4.63 0 0 1-3.68 3.67v13.55c1.57.3 2.86 1.39 3.43 2.85l5.62-.79c-.13-1.43-.25-3.05-.36-4.98-.36-6.57-.58-10.74-.28-14.3zm-15.9-31.38c.67-.49 1.47-.78 2.34-.85.77-5.47 1.62-11.7 2.21-16.11a6.93 6.93 0 0 1-3.49-2.05l-8.23 5.83c.42.8.68 1.7.68 2.66 0 1.26-.42 2.41-1.1 3.36zm-3.86 48.72c2.21 0 4.06 1.56 4.52 3.63l6.15-.17c.15-.69.46-1.32.89-1.86L83.96 117.2c-.14.07-.29.14-.43.19.9 4.49 1.9 9.42 2.58 12.75zm40.17-75.77c-2.64-.97-4.94-2.17-6.99-3.43l-.36 4.21c3.76.68 6.62 3.97 6.62 7.93 0 .44-.04.88-.11 1.31l5.37 1.5c.07-3.2-.03-5.58-.2-7.41-.01-.06-.58-3.05-4.33-4.11"/><path d="M73.59 57.85c1.18-.99 2.48-2.14 3.89-3.42l-1.29-4.56c-.25.06-.51.1-.78.1-1.92 0-3.49-1.56-3.49-3.48S73.49 43 75.41 43s3.49 1.57 3.49 3.49c0 1.01-.44 1.92-1.14 2.56l1.15 4.05c2.22-2.08 4.66-4.49 7.31-7.28.34-.36.72-.72 1.13-1.06l-1.38-2.4c-.59.28-1.25.45-1.95.45-2.56 0-4.64-2.08-4.64-4.63s2.08-4.63 4.64-4.63a4.64 4.64 0 0 1 4.63 4.63c0 1.22-.48 2.33-1.26 3.15l1.35 2.36c1.95-1.37 4.41-2.57 7.13-3.38l-.31-2.24c-.19.02-.38.06-.58.06-3.19 0-5.79-2.59-5.79-5.78 0-3.18 2.6-5.77 5.79-5.77s5.79 2.59 5.79 5.77c0 2.38-1.45 4.43-3.51 5.31l.3 2.2c2.25-.52 4.63-.75 7.01-.56.45.03.89.1 1.33.2l.48-2.78c-2.69-.96-4.63-3.51-4.63-6.52 0-3.81 3.12-6.92 6.94-6.92s6.93 3.11 6.93 6.92c0 3.82-3.11 6.92-6.93 6.92q-.31 0-.61-.03l-.51 2.94c2.32.92 4.55 2.59 7.01 4.46 1.16.87 2.41 1.82 3.76 2.75l3.25-7.41c-2.81-1.27-4.76-4.08-4.76-7.35 0-4.45 3.62-8.06 8.08-8.06 4.45 0 8.08 3.61 8.08 8.06s-3.63 8.07-8.08 8.07c-.57 0-1.13-.06-1.67-.17l-3.4 7.86c1.96 1.25 4.15 2.45 6.66 3.44 0 0 1.9.83 3.32-3.66l.02-.04c1.4-4.51 5.45-7.85 5.22-14.29 0 0-1-14.51-8.15-14.52-8.58-.01-10.87 5.8-10.87 5.8S114.35 19 108.69 19c-4.81 0-7.36 5.68-7.36 5.68s-3.18-2.77-7.66-1.72c-5.26 1.22-6.52 7.3-6.52 7.3s-3.13-1.7-7.14.5c-3.07 1.68-4.6 5.99-4.01 8.22 0 0-6.72.54-7.44 8.36-.3 3.34.34 5.99.89 8.08 1.69 4.23 4.14 2.43 4.14 2.43m19.1 107.99c-3.65 0-6.6-2.94-6.6-6.58s2.95-6.58 6.6-6.58 6.6 2.94 6.6 6.58-2.95 6.58-6.6 6.58M75.91 86.76l.5-10.24a5.85 5.85 0 0 1-2.67-1.44l-8.25 6.67c.74 4.1 1.77 8.33 2.88 12.64l3.74-1.85c-.11-.39-.19-.79-.19-1.22 0-2.33 1.74-4.24 3.99-4.56m12.74 60.81-2.2-8.2c-.11 0-.22.03-.33.03-2.15 0-3.95-1.47-4.47-3.46l-7.26.47c-.01 6.87-.49 14.5-1.68 22.85q-.13.9-.2 1.76l7.81-1.05c-.01-.23-.03-.47-.03-.71 0-5.41 3.5-10.01 8.36-11.69m-15.84-33.32 4.47-1.12c0-.03-.01-.04-.01-.06 0-1.88 1.14-3.49 2.75-4.22l-3.21-12.93c-.09.01-.17.03-.25.03-1.51 0-2.83-.73-3.68-1.84l-4.07 2c1.49 5.8 3.01 11.69 3.9 17.51.03.21.07.43.1.63m42.41-27.91c-.84 2.16-2.93 3.7-5.38 3.7-.21 0-.42-.04-.62-.07l-5.69 17.91a4.66 4.66 0 0 1 2.35 3.18h4.92c.38-2.71 1.1-5.22 2.38-8.42 1.56-3.91 5.75-8.83 9.65-14.63zm9.76-20.27a8.08 8.08 0 0 1-7.5 5.07c-.61 0-1.22-.08-1.8-.21l-2.9 8.39c1.69 1.01 2.84 2.84 2.84 4.95 0 .12-.03.24-.04.36l8.27 1.82c3.56-5.53 6.65-11.82 6.92-18.78zm-19.91 92.85 8.4-.5c0-.39.01-.78 0-1.19-.45-14.06-1.35-16.66-2.06-23.42l-5.44.76a4.646 4.646 0 0 1-4.64 4.62c-.42 0-.82-.07-1.21-.18l-2.83 8.77c4.46 1.79 7.64 6.09 7.78 11.14m-4.61-28.9v-13.55a4.65 4.65 0 0 1-3.63-3.45l-10.32.49c-.1 1.01-.51 1.92-1.16 2.63l13.63 14.45c.45-.27.94-.47 1.48-.57M77.65 86.84a4.57 4.57 0 0 1 2.84 2.06l7.65-2.88c-.06-.29-.09-.56-.09-.86 0-.91.27-1.76.73-2.48l-7.62-7.18c-.85.64-1.88 1.04-3.01 1.13zm14.17 84.76c-5.62-.39-10.21-4.51-11.29-9.9l-8.1 1.09c-.26 15.16 13.41 18.05 19.39 18.3zM105 160.66c-.66 5.88-5.48 10.52-11.44 10.94v9.47c5.93-.51 18.78-6.07 19.85-20.9z"/><path class="b" d="M72.69 73.72c-.48-.83-.77-1.79-.77-2.82 0-2.96 2.25-5.38 5.12-5.71l.46-7.3c-2.47 2.19-4.56 3.89-6.2 5.14-2.57 1.18-4.39 4.18-4.58 4.51-1.21 3.42-2.12 7.63-1.54 12.23zm44.51-18.7.44-5.14c-1.68-1.13-3.21-2.27-4.62-3.34-1.29-.98-2.48-1.88-3.62-2.62l6.07 11.35q.84-.21 1.73-.25m-12.82-13.15c-2.26-.18-4.53.08-6.67.61l-.41 8.44c3.27.56 5.76 3.4 5.76 6.81 0 .28-.02.56-.05.82l6.9 1.73c.71-1.9 2.12-3.47 3.92-4.39l-7.2-13.46c-.75-.31-1.49-.5-2.25-.56m-1.8 18.37c-.51 1.3-1.4 2.41-2.53 3.19L108 78.82c.58-.2 1.19-.33 1.84-.33.45 0 .9.07 1.33.17l2.87-8.3c-2.74-1.29-4.64-4.07-4.64-7.29 0-.37.04-.74.09-1.1zm-8.53 20.52c1.62.5 2.86 1.85 3.18 3.53h6.82v-.02c0-1.92.95-3.61 2.4-4.67L98.5 64.22c-.7.26-1.45.4-2.24.42-.65 4.91-1.59 11.73-2.21 16.12M78.78 65.23c.07.02.14.03.2.05l6.19-14.67c-2.1 2.11-4.04 3.98-5.82 5.62zm1.82.7c.43.25.85.54 1.2.9L90.02 61c-.52-.98-.82-2.09-.82-3.27 0-3.63 2.8-6.6 6.36-6.89l.38-7.86c-3.09 1.02-5.75 2.59-7.45 4.22z"/></svg>