<svg version="1.2" xmlns="http://www.w3.org/2000/svg" viewBox="0 0 329 910" width="362" height="1000"><style>.a{fill:none;stroke:#000;stroke-linecap:round;stroke-linejoin:round;stroke-width:1.9}.b{fill:none;stroke:#000;stroke-linecap:round;stroke-linejoin:round;stroke-width:5.7}.c{fill:none;stroke:#000;stroke-linecap:round;stroke-linejoin:round;stroke-width:3}.d{stroke:#000;stroke-linecap:round;stroke-linejoin:round;stroke-width:5.7}.e{fill:none;stroke:#000;stroke-linecap:round;stroke-linejoin:round;stroke-width:2.3}.f{stroke:#000;stroke-linecap:round;stroke-linejoin:round;stroke-width:1.9}.g{fill:none;stroke:#000;stroke-linecap:round;stroke-linejoin:round;stroke-width:3.8}.h{fill:none}</style><path fill-rule="evenodd" class="a" d="m116.1 467.8l1.6-25.4h-3.7z"/><path class="b" d="m115.9 442.4c0 0-0.2-9.8-1.7-14.6"/><path class="c" d="m116.6 507v-62.7"/><path  d="m128.5 392.6c2.1 0.3 4-1.3 4.3-3.4 0.2-2.1-1.3-4-3.4-4.3-2.1-0.3-4.1 1.3-4.3 3.4-0.3 2.1 1.2 4 3.4 4.3z"/><path fill-rule="evenodd" d="m134.7 389.5c-0.4 3.1-3.3 5.4-6.5 5-3.1-0.4-5.4-3.3-5-6.4 0.4-3.2 3.2-5.5 6.4-5.1 3.2 0.4 5.4 3.3 5.1 6.5zm-5.3-4.6c-2.1-0.2-4.1 1.3-4.3 3.4-0.3 2.1 1.2 4 3.4 4.3 2.1 0.3 4-1.3 4.3-3.4 0.2-2.1-1.3-4-3.4-4.3z"/><path  d="m113.4 382.5c2.2 0 3.9-1.7 3.9-3.9 0-2.1-1.7-3.8-3.9-3.8-2.1 0-3.8 1.7-3.8 3.8 0 2.2 1.7 3.9 3.8 3.9z"/><path fill-rule="evenodd" d="m119.2 378.6c0 3.2-2.6 5.8-5.8 5.8-3.2 0-5.7-2.6-5.7-5.8 0-3.1 2.5-5.7 5.7-5.7 3.2 0 5.8 2.6 5.8 5.7zm-5.8-3.8c-2.1 0-3.8 1.7-3.8 3.8 0 2.2 1.7 3.9 3.8 3.9 2.2 0 3.9-1.7 3.9-3.9 0-2.1-1.7-3.8-3.9-3.8z"/><path  d="m124.8 749.1c2.1 0.4 4.1-1 4.5-3.1 0.4-2.1-1-4.1-3.1-4.5-2.1-0.4-4.2 1-4.5 3.1-0.4 2.1 1 4.1 3.1 4.5z"/><path fill-rule="evenodd" d="m131.2 746.3c-0.6 3.2-3.6 5.2-6.8 4.7-3.1-0.6-5.2-3.6-4.6-6.7 0.6-3.2 3.6-5.2 6.7-4.7 3.2 0.6 5.2 3.6 4.7 6.7zm-5-4.8c-2.1-0.4-4.2 1-4.5 3.1-0.4 2.1 1 4.1 3.1 4.5 2.1 0.4 4.1-1 4.5-3.1 0.4-2.1-1-4.1-3.1-4.5z"/><path  d="m122.9 761c1.9-1.1 4.3-0.4 5.3 1.5 1.1 1.8 0.4 4.2-1.5 5.2-1.8 1.1-4.2 0.4-5.3-1.4-1-1.9-0.4-4.2 1.5-5.3z"/><path fill-rule="evenodd" d="m119.8 767.2c-1.6-2.8-0.6-6.3 2.2-7.9 2.8-1.5 6.3-0.5 7.9 2.2 1.5 2.8 0.6 6.3-2.2 7.9-2.8 1.5-6.3 0.6-7.9-2.2zm8.4-4.7c-1-1.9-3.4-2.6-5.3-1.5-1.9 1.1-2.5 3.4-1.5 5.3 1.1 1.8 3.5 2.5 5.3 1.4 1.9-1 2.6-3.4 1.5-5.2z"/><path fill-rule="evenodd" class="d" d="m114.7 429.8c-0.3-7.9-9.2-20.2-15.2-34.1-2.7-6.2-4.6-12.8-4.8-20-0.6-31.2 25.5-36.7 25.5-36.7l-11.2-13.8c0 0-16.5 9.7-19.3 48.5-1.2 16.4 23 43.1 25 56.1z"/><path fill-rule="evenodd" class="d" d="m113.7 322.7c5.3 0 9.5 4.2 9.5 9.4 0 5.3-4.2 9.5-9.5 9.5-5.3 0-15.2 6.5-15.2 1.2 0-5.2 9.9-20.1 15.2-20.1z"/><path class="e" d="m166.2 507c0-7.3 0-47.9 0-52.7 0-0.4 0-3.7 0-4.1 0-18.8 12-20.5 22.7-27.4 6.8-4.5 14.3-8.8 20.5-11.3"/><path class="b" d="m209.4 411.5c11.2-4.9 24.2-4.7 34.5-2.4 9.7 2.1 17.5 10 17.4 23.4 0 10.6-16.2 9.3-11.2 33.5 4.1 19.9-3.4 17.6-16.7 27.8-7.2 5.6-12.8 11.4-18.7 36.1-2 8.3-9.8 71.2-11.8 85.9-2 14.9 2.1 31.2 14.8 39.4 9.6 6.1 12 10.9 11.2 21.2-0.8 9.8-17.1 17.9-19.5 37.3-1.8 15.5 5.5 20.5 1.7 28.6-4.7 10.1-13 13.5-24.3 13-12.4-0.5-18.5-13.5-32.7-12-15.6 1.7-23.4 1.5-23.4 1.5"/><path fill-rule="evenodd" class="f" d="m146.3 744.2l-20.4-2.6 0.2 7.4z"/><path fill-rule="evenodd" class="f" d="m148.9 757.9c-9.3 2.9-22.1 9.8-22.1 9.8l-2.8-7.1c0 0 8.2 0.1 24.9-2.7z"/><path class="b" d="m133.6 761.9c0 0 7.7-3 20.2-4.8 11-1.5 17.4 9.9 31.1 9.7 14.4-0.2 29.1-2.6 36.7-22 4.1-10.6-3.7-16.4-2-28.6 2.4-18.1 17.8-23.1 19.1-38.4 0.9-10.2-0.3-21-10.9-28.1-10.9-7.4-16.6-13.4-15.3-29.1 0.4-5.4 10.8-80.5 13.4-90.7 4.2-16.1 8.6-23.1 16.1-28.9 13.3-10.4 24.9-4.1 19-37.4-3.8-17.2 12.5-19 10.7-34.7-1.9-15.9-10.8-27.1-24.7-30.2-8.2-1.8-20.5-3.3-33.9 0.3"/><path class="e" d="m213.1 399c-8.5 2-16.3 11.8-24.9 17.2-11.7 7.4-25.7 12.6-25.9 26.4 0 0.9 0.1 4.7 0.1 5.1 0 9.1 0 50.9 0 59.2"/><path class="e" d="m158.6 506.9c0-9.2 0-45.7 0-58.1 0-0.4 0-6.4 0-7.7 0.2-17 16.6-22 28.8-31.5 10.6-8.3 17.7-20.9 31.3-22.6"/><path class="b" d="m218.7 387c13.8-1.9 22.9-1.4 31.8 1.5 10 3.2 27.4 9.7 32.3 39.5 2.9 18-13.4 21.6-11.3 34.6 3.3 20 0.3 33.6-9.4 39.7-15 9.3-23.4 2.5-30.1 51.4-3.3 24.2-6.2 39.7-8.4 53.1-3.6 21.4-2.2 27.8 11.7 36.7 10.6 6.9 13.5 16.7 13.2 30.7-0.5 24.9-15.7 24.8-19.5 43.6-1.5 7.5 7 17.1 3 28.6-18 51.1-64.4 18.6-71.1 38.5"/><path class="e" d="m154.8 506.9c0-9.6 0-41.3 0-57.2 0-1 0-5 0-9.7 0-20.8 19.7-27.3 30.5-36.6 12-10.3 22.8-25 37-27.7"/><path class="b" d="m222.3 375.7c12.1-1.4 23.2-0.8 34.3 3.1 11.7 4.1 34.7 17.1 36.1 50 1.1 25.8-14.4 19.4-9.8 46.4 4.4 25-13.9 35.3-14.3 53.7"/><path class="e" d="m151 507c0-10.3-0.1-40.6 0-57.6q0-6.3 0-11c-0.1-23 21.3-29.8 34.1-43.4 9.2-9.8 24.3-27.4 40-30.6"/><path class="b" d="m221.7 365.3c10.8-3.3 18.5-8.9 24.2-18.8"/><path class="e" d="m147.2 506.9c0-10.1 0-41 0-62.7 0-0.4 0-10.7 0-12.5 0.3-18.4 22-26.7 39.9-46.9 8.2-9.3 23.6-23.8 34.6-32.6"/><path class="b" d="m216.8 356.7c12.7-8.3 7.9-34.6 1.6-45.6-5.3-9.1-7.1-17.2 0.1-32.9 8.3-18.3-3.9-18.8 0-32.9 4.4-16 18.3-5 22.1-21.5 4-17.2 0.8-29.9 11.6-48.7"/><path class="e" d="m143.4 506.9c0-10.8 0-39.6 0-63 0-4.4 0-14.6 0-16.1 0.5-19.9 26.2-28.6 45.2-54.5 6.4-8.9 17.3-17.6 23.8-26.4"/><path class="b" d="m207.2 353c9-12 5.4-30.9-3-38.1-17.1-14.7 5.3-29.4-24.3-33.2"/><path class="e" d="m139.6 506.9c0-11.7 0-53.3 0-77.3 0-4.3 0-4.2 0-5.8 0-16.1 21.5-26.9 40.7-51.5 11.4-14.6 18.1-20.3 19.1-29.6"/><path class="b" d="m197.1 350.9c16.4-45.6-42.2-31.9-70-66.7-9.7-12-10.2-29.3-8.9-43.9 1.1-12.8 10.7-26.6 11.5-35.2 1.8-20.6-4.9-24.7-8.5-35.9-7.5-23.4 8.7-34.2-12.2-54.3"/><path class="e" d="m135.8 507c0-12.7 0-56.3 0-80.8 0-4.3 0-5.4 0-7.1 0.1-14.1 21.3-28.8 33.8-43.6 8.9-10.7 12.8-15.5 19.7-33.4"/><path class="b" d="m187.3 348.5c16.7-29.1-38.6-25.7-66.1-53.6-10-10.1-15.9-1.6-25.5-10.7-8.6-8.1 1.1-20.7-15.6-30"/><path class="e" d="m132 506.9c0-14.2 0-64.8 0-87.1 0-2.6 0-2.6 0-3.8 0.1-14.3 19.4-28.4 30.8-40.8 8.2-8.8 9.3-14.3 14.4-30.7"/><path class="b" d="m176.5 346.6c4.7-16.6-22.5-17.8-40.8-29.7-19.9-13.1-31.9-6.8-39.3 0-11.1 10-13.1 3-21.1 14.5-8.3 11.9 4.2 18.5 0 33.5-4.4 15.4-15.9 13.1-17.7 31.1-1.9 18.3 15.3 23.3 14 34.2-2.1 17.6-13.6 13.6-13.1 33.8 0.3 12.4 0.8 16.8 0.9 18.5"/><path class="e" d="m128.2 506.9c0-18.2 0.1-77.8 0-88.1 0-4.3-2-10.8-2.2-16.5"/><path class="a" d="m126.6 402.3c-0.3-7.3-0.5-13.6-0.5-13.6"/><path fill-rule="evenodd" class="f" d="m127 410.3c-0.7-4.4 1.3-9.1 1.3-9.1l-2.5-0.5c0 0 0.3 3.7 1.2 9.6z"/><path fill-rule="evenodd" class="f" d="m122.7 420.1l-2.4-9.6-1.8 0.5z"/><path class="e" d="m124.3 506.9c0.1-15.9 0.1-61 0.1-80 0-4.5-3.8-10.8-5.8-16.7"/><path class="g" d="m119.2 410.2c-0.7-2.1-1.4-4.1-2-6-3.2-10.1-11.5-18.1-3.8-25.6"/><path fill-rule="evenodd" class="f" d="m126.7 406.9l6-17c0 0-6.2-4.4-7.7-1.7-0.9 1.8 1.7 18.7 1.7 18.7z"/><path fill-rule="evenodd" class="f" d="m113.4 396.3c-1.5-13.8 4.3-15.5 4.3-15.5l-9.1-2.6c0 0-1.5 9.5 4.8 18.1z"/><path fill-rule="evenodd" d="m242.8 346.1c1.6 1 3.6 2.7 4.6 3.3 4-4.7 17.8 2.3 17.8 2.3 0 0-11-21.4-20.5-22.3 0.9 4.4 1.9 10.3-1.9 16.7z"/><path fill-rule="evenodd" d="m254.4 539.9c0.8-4.4 4.9-7.4 9.3-6.7l6.6 1.1c4.4 0.7 7.4 4.9 6.6 9.2l-12.1 73.9c-0.7 4.4-4.8 7.3-9.2 6.6l-6.6-1.1c-4.4-0.7-7.4-4.8-6.6-9.2z"/><path fill-rule="evenodd" d="m81.2 258.1c0.9-1.2 2.4-3.5 3-4.8-4.7-3.9-1.6-12.1-1.6-12.1 0 0-19.7 14.3-16.6 17.8 6-3.4 10.9-3.7 15.2-0.9z"/><path fill-rule="evenodd" d="m186.4 285.9c0.5-1.5 2-4 2.1-5.3-3.8-1.7-1.2-6.7-1.2-6.7 0 0-20.5 9.8-16.4 12.1 5.6-0.9 9.5-1.5 15.5-0.1z"/><path fill-rule="evenodd" d="m251.9 181.9c-1.3-0.7-4.4-0.4-5.7-0.8 1.1-3-5.7-9.9-5.7-9.9 0 0 21.3-6.1 21.8-1.4-3.3 3.8-9.1 8.5-10.4 12.1z"/><path fill-rule="evenodd" d="m265.9 526.2c0.7 0.2 4.7 0.6 5.6 0.8-0.5 5.4 4.2 10.8 4.2 10.8 0 0-11.9 0.1-18.2-3 3.9-2.7 7.9-3.6 8.4-8.6z"/><path fill-rule="evenodd" d="m109.5 119.6c0.9-1.3 3.3-2.7 4.6-3.5-2-3.4 4.3-7.9 4.3-7.9 0 0-27.2 1.4-25.4 5.7 6 1.4 13.7 1.8 16.5 5.7z"/><path fill-rule="evenodd" d="m147.3 239c0-11.6 9.4-20.9 20.9-20.9 11.5 0 20.9 9.3 20.9 20.9v26.3c0 11.6-9.4 20.9-20.9 20.9-11.5 0-20.9-9.3-20.9-20.9z"/><path fill-rule="evenodd" d="m192.1 122.8c-3.1-3.1-3.1-8.1 0-11.1l4.9-5c3.1-3 8.1-3 11.2 0l53.3 53.1c3 3.1 3 8.1 0 11.2l-5 4.9c-3.1 3.1-8.1 3.1-11.2 0z"/><path fill-rule="evenodd" d="m51.1 494.5c0-4.3 3.5-7.9 7.9-7.9h6.9c4.4 0 7.9 3.6 7.9 7.9v75.1c0 4.4-3.6 7.9-7.9 7.9h-7c-4.4 0-7.9-3.6-7.9-7.9z"/><path fill-rule="evenodd" d="m69.3 487.4c0 0-9.3 0.3-14.8 0.7 1.2-1.5 2.1-2.3 2-7.1 0.4 0 3.2-0.1 5.7 0.1 0.3 3.7 7.1 6.3 7.1 6.3z"/><path fill-rule="evenodd" d="m243.3 293.5c0-18.9 15.3-34.2 34.2-34.2 18.9 0 34.2 15.3 34.2 34.2v26.3c0 18.8-15.3 34.2-34.2 34.2-18.9 0-34.2-15.4-34.2-34.2z"/><path fill-rule="evenodd" d="m113.2 819.1c0-18.8 15.3-34.1 34.2-34.1 18.8 0 34.1 15.3 34.1 34.1v26.3c0 18.9-15.3 34.2-34.1 34.2-18.9 0-34.2-15.3-34.2-34.2z"/><path fill-rule="evenodd" d="m165.1 783.1c-1.1-1.1-2.8-2.2-4.7-3.1-2.8 3.6-12.5 5-12.5 5 0 0 24.4 14.6 23.5 10-2.1-2.1-7.8-7-6.3-11.9z"/><path fill-rule="evenodd" d="m64.8 54c0-18.9 15.3-34.2 34.2-34.2 18.9 0 34.2 15.3 34.2 34.2v26.3c0 18.9-15.3 34.2-34.2 34.2-18.9 0-34.2-15.3-34.2-34.2z"/><path fill-rule="evenodd" d="m16.9 201.9c0-18.8 15.3-34.2 34.2-34.2 18.8 0 34.1 15.4 34.1 34.2v26.3c0 18.9-15.3 34.2-34.1 34.2-18.9 0-34.2-15.3-34.2-34.2z"/><path fill-rule="evenodd" class="f" d="m174.7 346.5c-1.3 4.3-1.7 11.9-3.8 16.9 2.4-3.8 6.7-12.6 7.3-15.9 0.2-1.2-2.9-2.1-3.5-1z"/><path fill-rule="evenodd" class="f" d="m185.5 348c-2.2 5.2-2.9 9.5-6.9 15.9 3.1-3.7 8.4-10.4 10.4-14.8 0.3-1.2-2.9-2.1-3.5-1.1z"/><path fill-rule="evenodd" class="f" d="m195.6 349.4c-1.1 5.3-5.1 10.2-9.5 15.6 6.3-6.4 12.2-10.6 12.8-13.6 0.5-1.1-2.5-2.9-3.3-2z"/><path fill-rule="evenodd" class="f" d="m205.8 351.9c-2.6 4-7 9.3-13.5 16.8 8.8-7.9 12.4-9.4 16.7-15 0.5-1.1-2.4-2.6-3.2-1.8z"/><path fill-rule="evenodd" class="f" d="m215.9 355c-4.1 2.3-13.2 12.8-20.8 21.2 10.3-10.2 17.4-14.4 23-18.2 0.7-1-1.3-3.8-2.2-3z"/><path fill-rule="evenodd" class="f" d="m222.4 367c-7.9 2.1-16.8 5.9-25.6 15.7 6.8-8.4 18.7-17.3 24.7-19.2 1.2-0.3 1.9 2.9 0.9 3.5z"/><path fill-rule="evenodd" class="f" d="m222.3 377.5c-5.6 0.7-14.9 5.4-24.7 14.4 5.9-5.8 16.2-16.8 24.9-18.1 1.2 0.2 1 3.5-0.2 3.7z"/><path fill-rule="evenodd" class="f" d="m220 388.7c-5.7 1-9.6 1.1-20.1 9 5.3-5.8 14.3-12.4 20.1-12.7 1.2 0.1 1.2 3.4 0 3.7z"/><path fill-rule="evenodd" class="f" d="m213.1 400.9c-5.6 1.4-7.6 1.4-17.6 9.8 4.5-4.8 10.9-12.2 17.4-13.4 1.2 0 1.3 3.3 0.2 3.6z"/><path fill-rule="evenodd" class="f" d="m209.9 413.3c-4.5 2.2-10.1 3.4-20.4 9.1 7.3-5.4 15.4-10.8 19.3-12.7 1.2-0.2 2.2 3.1 1.1 3.6z"/><path fill-rule="evenodd" class="h" d="m105.4 545c0-3 0-89.4 0-89.8-0.1-2.8 0-16.2 0-22.5 0-8.1-19.7-31.5-23.7-29.6-6.1 3 5.4 17.6 6.4 21.7 1.4 5.9-1.6 13.7-4.4 18.9-4 7.4-6.5 8.6-6.8 20.9-0.1 11.2 14.1 6.5 14 24.5 0 21.1 0 84.1 0 84.1-0.2 10.7-7.5 21-15.8 25.5-2.4 1.3-7.3 6.2-10.5 6.2-4.8 0-8.4-5.4-10.9-6.9-8.4-5-17.3-8.5-17-26.3v-69.4c-1-32.1 7.7-27.7 7.6-35.9-0.1-32.2 9.9-26.2 9.9-35.6 0-12-8.4-10.5-8.2-32.6 0.1-6.4 2.2-16.8 5.3-20.2 6.5-7.3 11.4-9.7 13.3-15.6 2.5-8-9.8-20.4-0.8-36.5 7.6-13.5 20.7-16.8 34.9-22.7 6.4-2.6 12-0.6 12-2.7-0.1-3.5-19.6 0.6-26-7-5.9-7.1-15.2-14.5-17.9-14.1-5.5 0.8-11.8 16.5-16.9 16.1-5.4-0.4-15.1-16.7-19.8-18.4-19-7.1-30.8-24.9-29.7-64.8 0.9-32.8 9.6-43.9 19.6-51.9 8.9-6.9 18.8-18.4 31.6-18 10 0.2 22.2 12.9 26.5 15.3 7.6 4.1 18.8 15.7 21.9 26.7 4.5 16.2 1.8 34.8 1.7 53.5-0.2 14.5 0 34.3 3.3 34.1 4.2-0.4-1.1-12.9 2-34.1 3-20.4 10.7-30 9.7-38.6-1.1-10.2-10.6-16.9-13.3-32.5-2-12.4 0.6-16-0.4-24.4-0.9-7.8-3.3-10.9-17.5-13.3-6.3-1-21.6-7.2-26.6-12.1-11-10.6-9-50.2-9-63.1 0-47.8 51.6-67.2 83.8-40.6 9.7 8 14.6 24.6 17.3 30 4.3 8.4 7.2 16 7.4 23.8 0.1 5.2-5.1 14.7-7.4 19.8-2.3 5.1-13.2 25.1-16.2 32.4-2.4 5.9-4.2 15.2-4.8 32.1-0.8 23.2 11.8 24.2 12.7 38.6 1.3 20.5-14.5 41-14.7 57.8-0.2 10.5 2.5 24.7 5.9 23.6 3.1-1-1.3-24.9 3-43.7 2.7-11.7 14.7-22.7 19.9-25.2 11.5-5.4 22.3-1.6 28.4 2 5.7 3.3 14.4 8.3 17.1 24.2 3.6 21.6-0.4 47.2 0.7 50.3 1.9 5.1 8.1-2.4 7-11.4-0.9-7.7-2.6-16.1-1-24.6 2.7-13.9 8.9-17.9 15.4-18.9 5.1-0.9 7.3-7.2 8.7-17.8 0.7-5.3 3.5-17.5-1.1-22-7.7-7.3-28.3-27.3-52.9-53.2-3.3-3.4-6-13.1-6.5-16.8-0.9-7.1-1-17.3 4.3-22.6 4.7-4.6 13.3-5.7 19.5-6.4 5.6-0.6 16.2 2 20.8 6.4 8.8 8.2 37.4 37.1 49.8 49.1 19.2 18.4 19.5 26.2 16.5 32.3-1.3 2.8-1.7 18.2-4.3 20.7-2.6 2.4-7.8 0.7-11.4 1.8-9.7 2.7-12.7 0.8-16.6 29.5-2.2 15.6-13 17.5-20.3 20.8-6 2.7 0 13.5-0.2 21.7-0.3 9.7-6.8 18.5-7.3 26.9-0.6 8.1 4.2 10.5 4.5 18.1 0.7 14 2.4 24.8 2.8 25 2.4 1.9 1.5-3.4 1.2-9.5-0.5-10.8-2.5-28-1-42.8 2.1-20.1 18.3-34 22.3-36.3 3.8-2.2 17-15.7 22.7-16.3 9.4-0.8 15.5 9.7 27 16.3 11 6.4 25.2 18.1 25.6 42 0.4 16.8 1.9 32.2-1.6 43.9-4.7 15.6-15.6 25.2-23.1 29.7-2.4 1.5-16.1 5.7-26.4 4.6-13.2-1.5-21.5-6.8-25.2-4.6-8.7 5.2 13.4 3.3 27 13.2 16.6 12.2 23.2 32.8 23.7 43.1 1.2 26.5-7.2 31.7-9 43.7-0.9 5.8 7.6 16.1 6.1 27.7-1.2 9.3-8.1 18.7-9.4 24.6-3.1 14 7.7 7.7 2.4 36-2.6 13.7-7.9 48.4-10 62.8-6.2 40.4-26.4 18.9-27.9 27.7-2.3 13.7 7 26.4 3 42.6-3.7 15.5-12.1 19.8-15.4 33.2-1.4 5.9 8.2 18.9 0 34.9-6.6 13.1-14.6 30.4-31.2 34.1-8.8 1.9-14.2-1.3-14.1 7.6 0.2 11.6 4.5 15.8 4.5 35.6-0.1 42.7-11.9 50.6-27.8 59.4-7 3.9-19.6 17.6-27.2 17.6-8.5-0.1-24-17.5-31.3-21.9-14.6-9-21.4-27.5-21.1-55.8 0.3-24.1 10.5-39.6 23.6-49.3 1.3-1-40.4 1-44.9-4.8-7.1-9.2-3.2-42.5 2.5-47.2 7.4-6 71.7-3.3 90.1 3.7 9 3.4 18.9 10.4 26.1 9.2 13.8-2.3 1.5-10.5 5.4-35.5 2.9-18.7 18.4-26.7 18.2-33.7-0.2-9.9-15.6-9.7-21.5-26.7-7-20.3-0.4-59.5 2.4-76.8 6.9-41.9 10.2-74.1 25-82.5 23.5-13.4 13-15.4 13.8-36.4 0.5-11.9 12.8-14.4 9.4-24.7-2.4-7.4-6.7-7.8-29.4-4.4-9.9 1.5-44 7.3-45.2 34.7 0 0.1 0 2.6 0 6.6 0 13.9 0 80.2 0 82.1z"/><path fill-rule="evenodd" d="m105.2 270.3q0.2-0.7 0.2-1.8c0-5.2-1.9-15.8 0.3-30.8 1.8-12.3 5.3-20.8 7.6-27.4 1.5-4.2 2.5-7.6 2.1-10.9-0.5-4.9-3.1-8.9-5.9-13.7-2.9-5-6-10.7-7.4-18.7-2.1-12.5 0.6-16-0.4-24.5-0.3-2.8-0.8-4.9-2.2-6.6-2.1-2.7-6.2-4.1-14.3-5.5-6.4-1-22.1-7.4-27.3-12.5-3.4-3.3-5.7-9.3-7.1-16.5-3.2-16.2-2.2-38.4-2.2-47.5-0.1-49 52.9-68.9 85.9-41.6 9.9 8.1 14.9 24.9 17.7 30.4 4.3 8.6 7.3 16.4 7.5 24.4 0 2.2-0.8 5.2-2 8.2-1.7 4.4-4.1 9.1-5.5 12.1-2.3 5.1-13.2 25.1-16.1 32.4-2.4 5.8-4.2 15-4.7 31.6-0.5 13.5 3.7 19.3 7.3 24.8 2.6 3.9 4.9 7.7 5.3 13.7 0.7 10.4-3 20.9-6.9 30.9-3.7 9.6-7.7 18.7-7.8 27-0.1 7.1 1.1 16.1 3 20.4q0.4 1 0.9 1.6 0.1 0.1 0.2 0.1c0-0.1 0.1-0.4 0.1-0.6 0.2-1.1 0.3-2.5 0.3-4.3 0-8.6-1.3-24.3 1.8-37.6 2.8-12.1 15.2-23.6 20.7-26.1 11.9-5.6 23.2-1.7 29.6 2 5.9 3.5 14.9 8.7 17.7 25.2 2.5 15.2 1.3 32.4 0.7 42.4-0.1 2.5-0.2 4.6-0.2 6 0 0.8 0 1.3 0.1 1.6q0.2 0.4 0.4 0.6 0.1 0.2 0.2 0.2c0.3 0 0.6-0.2 0.9-0.5 1.9-1.8 3.6-6.2 3-11-0.9-7.9-2.6-16.4-1-25.1 2.8-14.8 9.6-18.8 16.5-20 2.1-0.3 3.6-1.9 4.7-4.4 1.4-2.9 2.2-7 2.9-12.2 0.4-3.1 1.6-8.7 1.5-13.6-0.1-2.9-0.6-5.6-2.3-7.2-7.6-7.4-28.2-27.3-52.9-53.3-3.4-3.6-6.3-13.6-6.8-17.5-0.6-4.4-0.9-10 0.2-14.9 0.8-3.4 2.2-6.6 4.5-8.9 4.9-4.8 13.8-6 20.3-6.7 5.8-0.7 17 2.1 21.8 6.7 8.8 8.3 37.5 37.1 49.9 49.1 7.7 7.5 12.4 13.3 15.1 17.9 4.3 7.4 3.5 12 1.6 16-0.2 0.5-0.4 1.5-0.6 2.8-0.6 3.4-1 8.6-1.8 12.5-0.5 2.7-1.3 4.9-2.2 5.7-1.2 1.2-3 1.6-4.9 1.8-2.3 0.1-5-0.3-7.1 0.3-3.6 1.1-6.3 1.3-8.4 3.1-1.5 1.3-2.6 3.3-3.7 7-1.3 4-2.3 9.8-3.5 18.3-2.3 16.3-13.5 18.5-21 21.9-1.9 0.8-2.1 2.8-1.9 5.1 0.4 4.6 2.5 10.5 2.4 15.4-0.1 5-1.8 9.8-3.6 14.4-1.7 4.4-3.4 8.5-3.7 12.6-0.2 3.8 0.7 6.2 1.8 8.6 1.2 2.7 2.6 5.3 2.8 9.3 0.3 6.8 0.9 12.8 1.4 17.3q-0.1-0.8-0.1-1.7c-0.5-10.7-2.5-28.1-1-42.9 2.2-20.7 18.8-34.9 22.9-37.3 2.6-1.5 9.9-8.6 15.9-12.9 2.8-2 5.5-3.4 7.3-3.6 4.1-0.4 7.7 1.2 11.2 3.7 4.9 3.5 9.8 8.9 16.6 12.8 11.4 6.5 25.9 18.5 26.4 43.1 0.3 17 1.8 32.5-1.7 44.2-4.8 16.1-16 26-23.7 30.6-2.4 1.5-16.6 5.8-27.2 4.7-8.1-0.9-14.3-3.2-18.8-4.4-1.4-0.3-2.6-0.6-3.6-0.6-0.8-0.1-1.5 0-2.1 0.3-0.3 0.2-0.7 0.5-1 0.7q0.2 0.1 0.3 0.2 0.9 0.3 2.2 0.6c6 1.6 17.4 3.3 25.7 9.4 17 12.5 23.7 33.6 24.2 44.2 0.7 16.1-2 24.5-4.8 31.3-1.7 4.3-3.5 8-4.2 12.6-0.3 2.2 0.9 5 2.2 8.3 2.2 5.5 4.9 12.2 4 19.4-0.7 4.8-2.8 9.6-4.9 14-2 4.1-4 7.8-4.6 10.7-1.2 5.1-0.3 7.3 0.9 9.7 2 4.1 4.8 8.8 1.5 26.3-2.6 13.6-7.8 48.4-10 62.7-2.3 14.7-6.5 21.4-10.8 24.5-4.5 3.1-9.4 2.5-13.1 2.1-1-0.1-2-0.2-2.7-0.1-0.4 0-0.7 0.1-0.9 0.3-0.2 0.2-0.3 0.5-0.4 0.9-1.1 6.7 0.6 13.1 2.1 19.8 1.6 7.1 2.9 14.6 0.9 22.9-1.9 7.9-5 13-8 17.8-2.9 4.6-5.8 8.9-7.4 15.4-0.2 0.8-0.1 1.8 0.1 2.8 0.3 1.9 1 4.2 1.6 6.8 1.8 6.8 3.3 15.6-1.8 25.6-3.3 6.6-7 14.3-12 20.8-5.1 6.6-11.5 12.1-20.1 14-3.6 0.8-6.6 0.7-9 1-1.3 0.1-2.4 0.3-3.1 1-0.7 0.8-1 2.1-1 4.2 0.2 11.7 4.6 15.9 4.5 35.7 0 21.7-3.1 34.6-8.1 43.1-5.1 8.6-12.2 12.9-20.3 17.4-4.2 2.4-10.4 8.2-16.2 12.5-4.3 3.1-8.4 5.3-11.7 5.3-3.6 0-8.5-2.9-13.4-6.7-7-5.4-14.3-12.7-18.6-15.4-14.9-9.1-22.1-28-21.7-57 0.3-22.9 9.3-38.2 21.4-48.2h-0.3c-7.1-0.1-22.7 0-32.7-1.5-2.7-0.4-5-1-6.6-1.6-1.3-0.6-2.3-1.2-2.8-1.9-1.8-2.4-3-6.2-3.6-10.7-0.9-6.5-0.6-14.5 0.4-21.5 0.7-4.7 1.7-9 2.9-12 0.9-2.3 1.9-4 3-4.8 1-0.8 2.9-1.5 5.5-2.1 3.6-0.7 8.6-1.2 14.5-1.4 22.7-0.8 58.4 2 71.4 7 5.4 2 11.1 5.3 16.4 7.4 3.2 1.3 6.3 2.1 9 1.6 2.9-0.4 4.4-1.1 5.1-2.3 0.8-1.3 0.6-3 0.2-5.3-0.9-5.6-3-14-1.1-26.7 1.8-11.6 8.3-19.1 13.1-24.9 1.5-1.8 2.9-3.4 3.9-4.9 0.8-1.3 1.3-2.5 1.3-3.7-0.1-3.5-2.5-5.5-5.5-7.7-5.2-3.8-12.3-8-16-18.6-7-20.4-0.5-59.9 2.4-77.4 4.1-25.2 7-47 11.8-62.1 3.3-10.5 7.7-17.9 13.8-21.4 9.4-5.3 13.2-8.7 14.4-12.3 0.8-2.4 0.4-4.9-0.1-8.1-0.6-3.8-1.3-8.4-1.1-14.8 0.3-6.3 3.6-10.2 6.4-13.8 2.5-3 4.6-5.9 3.1-10.5-0.7-1.9-1.4-3.3-2.7-4.2-1.3-0.9-3.2-1.3-6-1.3-4.2-0.1-10.3 0.7-19.3 2-4.9 0.7-15.7 2.5-25.5 7.5-9.5 4.9-18 12.8-18.6 25.9 0 0.1 0 2.6 0 6.6 0 13.9 0 80.2 0 82.1 0 0.7-0.6 1.3-1.3 1.3h-64.6c-0.7 0-1.3-0.6-1.3-1.3 0-3 0-88.9 0-89.8-0.1-2.8-0.1-16.2-0.1-22.5 0-1.6-0.8-3.7-2.1-6.2-3.2-6.1-9.3-13.8-14.3-18.4-1.7-1.6-3.2-2.9-4.5-3.5q-0.3-0.1-0.7-0.2c0 0-0.2 0-0.2-0.1-0.7 0.4-0.9 1.1-1 1.8 0 1.2 0.4 2.7 1.1 4.2 1.2 3.1 3.2 6.6 4.8 9.4 1.1 2 2 3.7 2.3 4.7 1.5 6.3-1.6 14.4-4.5 19.9-3.9 7.3-6.4 8.4-6.6 20.4-0.1 5 3.2 6.3 6.4 8.5 3.8 2.7 7.6 6.2 7.6 15.9-0.1 21.1 0 84.1 0 84.1q0 0 0 0.1c-0.3 11.1-7.9 21.9-16.6 26.6-1.4 0.7-3.7 2.8-6 4.3-1.8 1.2-3.6 2.1-5.1 2.1-2.7 0-5.1-1.5-7.2-3.2-1.7-1.5-3.2-3.2-4.4-4-5.2-3.1-10.6-5.7-14-11.2-2.3-3.7-3.8-8.7-3.7-16.2 0 0 0-69.3 0-69.3-0.6-19.8 2.5-26.1 4.9-29.8 1.5-2.2 2.8-3.3 2.8-6.2-0.1-20 3.7-25.7 6.7-29.2 1.7-2 3.2-3.1 3.2-6.4 0-4.5-1.3-7-2.8-9.7-2.5-4.4-5.6-9.3-5.4-22.9 0-3.9 0.8-9.4 2.1-13.8 0.9-3.2 2.1-5.8 3.5-7.3 3.3-3.7 6.2-6.1 8.5-8.4 2.1-2.1 3.7-4 4.5-6.7 0.5-1.4 0.4-3 0-4.7-0.4-1.9-1-4-1.7-6.2-2.3-7.1-4.6-15.8 1-25.8 7.8-13.8 21.1-17.4 35.6-23.4 3.4-1.4 6.6-1.5 8.9-1.6q-0.4 0-1-0.1c-3.7-0.3-9.2-0.2-13.9-1.3-3.5-0.8-6.5-2.2-8.5-4.5-4-4.9-9.7-9.9-13.6-12.3q-1.2-0.7-2.1-1.1c-0.4-0.2-0.8-0.3-1-0.3-1.1 0.2-2.2 1.2-3.3 2.4-2.1 2.2-4.1 5.3-6.2 8-1.4 1.9-2.9 3.6-4.3 4.6-1.1 0.8-2.3 1.2-3.4 1.1-1 0-2.3-0.6-3.5-1.5-1.7-1.2-3.5-3-5.3-5.1-2.7-2.9-5.4-6.4-7.8-8.9-1.4-1.5-2.6-2.6-3.6-3-19.4-7.2-31.6-25.3-30.5-66 0.9-33.5 9.8-44.8 20.1-52.9 4.4-3.5 9.1-8.1 14.4-11.8 5.4-3.9 11.3-6.7 18.1-6.6 4.2 0.1 8.8 2.3 13 5.1 6.1 3.9 11.5 9 14.1 10.4 7.8 4.3 19.3 16.2 22.5 27.6 4.5 16.2 1.9 35 1.7 53.8-0.1 10.1-0.1 22.7 1.1 29.3 0.2 1.3 0.5 2.4 0.8 3.1q0.1 0.1 0.2 0.2 0-0.1 0.1-0.2zm64.8 274.7c0-1.9 0-68.2 0-82.1 0-4 0-6.5 0-6.6 1.2-27.4 35.3-33.2 45.2-34.7 22.7-3.4 27-3 29.4 4.4 3.4 10.3-8.9 12.8-9.4 24.7-0.8 21 9.7 23-13.8 36.4-14.8 8.4-18.1 40.6-25 82.5-2.8 17.3-9.4 56.5-2.4 76.8 5.9 17 21.3 16.8 21.5 26.7 0.2 7-15.3 15-18.2 33.7-3.9 25 8.4 33.2-5.4 35.5-7.2 1.2-17.1-5.8-26.1-9.2-18.4-7-82.7-9.7-90.1-3.7-5.7 4.7-9.6 38-2.5 47.2 4.5 5.8 46.2 3.8 44.9 4.8-13.1 9.7-23.3 25.2-23.6 49.3-0.3 28.3 6.5 46.8 21.1 55.8 7.3 4.4 22.8 21.8 31.3 21.9 7.6 0 20.2-13.7 27.2-17.6 15.9-8.8 27.7-16.7 27.8-59.4 0-19.8-4.3-24-4.5-35.6-0.1-8.9 5.3-5.7 14.1-7.6 16.6-3.7 24.6-21 31.2-34.1 8.2-16-1.4-29 0-34.9 3.3-13.4 11.7-17.7 15.4-33.2 4-16.2-5.3-28.9-3-42.6 1.5-8.8 21.7 12.7 27.9-27.7 2.1-14.4 7.4-49.1 10-62.8 5.3-28.3-5.5-22-2.4-36 1.3-5.9 8.2-15.3 9.4-24.6 1.5-11.6-7-21.9-6.1-27.7 1.8-12 10.2-17.2 9-43.7-0.5-10.3-7.1-30.9-23.7-43.1-13.6-9.9-35.7-8-27-13.2 3.7-2.2 12 3.1 25.2 4.6 10.3 1.1 24-3.1 26.4-4.6 7.5-4.5 18.4-14.1 23.1-29.7 3.5-11.7 2-27.1 1.6-43.9-0.4-23.9-14.6-35.6-25.6-42-11.5-6.6-17.6-17.1-27-16.3-5.7 0.6-18.9 14.1-22.7 16.3-4 2.3-20.2 16.2-22.3 36.3-1.5 14.8 0.5 32 1 42.8 0.3 6.1 1.2 11.4-1.2 9.5-0.4-0.2-2.1-11-2.8-25-0.3-7.6-5.1-10-4.5-18.1 0.5-8.4 7-17.2 7.3-26.9 0.2-8.2-5.8-19 0.2-21.7 7.3-3.3 18.1-5.2 20.3-20.8 3.9-28.7 6.9-26.8 16.6-29.5 3.6-1.1 8.8 0.6 11.4-1.8 2.6-2.5 3-17.9 4.3-20.7 3-6.1 2.7-13.9-16.5-32.3-12.4-12-41-40.9-49.8-49.1-4.6-4.4-15.2-7-20.8-6.4-6.2 0.7-14.8 1.8-19.5 6.4-5.3 5.3-5.2 15.5-4.3 22.6 0.5 3.7 3.2 13.4 6.5 16.8 24.6 25.9 45.2 45.9 52.9 53.2 4.6 4.5 1.8 16.7 1.1 22-1.4 10.6-3.6 16.9-8.7 17.8-6.5 1-12.7 5-15.4 18.9-1.6 8.5 0.1 16.9 1 24.6 1.1 9-5.1 16.5-7 11.4-1.1-3.1 2.9-28.7-0.7-50.3-2.7-15.9-11.4-20.9-17.1-24.2-6.1-3.6-16.9-7.4-28.4-2-5.2 2.5-17.2 13.5-19.9 25.2-4.3 18.8 0.1 42.7-3 43.7-3.4 1.1-6.1-13.1-5.9-23.6 0.2-16.8 16-37.3 14.7-57.8-0.9-14.4-13.5-15.4-12.7-38.6 0.6-16.9 2.4-26.2 4.8-32.1 3-7.3 13.9-27.3 16.2-32.4 2.3-5.1 7.5-14.6 7.4-19.8-0.2-7.8-3.1-15.4-7.4-23.8-2.7-5.4-7.6-22-17.3-30-32.2-26.6-83.8-7.2-83.8 40.6 0 12.9-2 52.5 9 63.1 5 4.9 20.3 11.1 26.6 12.1 14.2 2.4 16.6 5.5 17.5 13.3 1 8.4-1.6 12 0.4 24.4 2.7 15.6 12.2 22.3 13.3 32.5 1 8.6-6.7 18.2-9.7 38.6-3.1 21.2 2.2 33.7-2 34.1-3.3 0.2-3.5-19.6-3.3-34.1 0.1-18.7 2.8-37.3-1.7-53.5-3.1-11-14.3-22.6-21.9-26.7-4.3-2.4-16.5-15.1-26.5-15.3-12.8-0.4-22.7 11.1-31.6 18-10 8-18.7 19.1-19.6 51.9-1.1 39.9 10.7 57.7 29.7 64.8 4.7 1.7 14.4 18 19.8 18.4 5.1 0.4 11.4-15.3 16.9-16.1 2.7-0.4 12 7 17.9 14.1 6.4 7.6 25.9 3.5 26 7 0 2.1-5.6 0.1-12 2.7-14.2 5.9-27.3 9.2-34.9 22.7-9 16.1 3.3 28.5 0.8 36.5-1.9 5.9-6.8 8.3-13.3 15.6-3.1 3.4-5.2 13.8-5.3 20.2-0.2 22.1 8.2 20.6 8.2 32.6 0 9.4-10 3.4-9.9 35.6 0.1 8.2-8.6 3.8-7.6 35.9v69.4c-0.3 17.8 8.6 21.3 17 26.3 2.5 1.5 6.1 6.9 10.9 6.9 3.2 0 8.1-4.9 10.5-6.2 8.3-4.5 15.6-14.8 15.8-25.5 0 0 0-63 0-84.1 0.1-18-14.1-13.3-14-24.5 0.3-12.3 2.8-13.5 6.8-20.9 2.8-5.2 5.8-13 4.4-18.9-1-4.1-12.5-18.7-6.4-21.7 4-1.9 23.7 21.5 23.7 29.6 0 6.3-0.1 19.7 0 22.5 0 0.4 0 86.8 0 89.8z"/><path  d="m136.6 380.5c-10.4 0-18.9-8.4-18.9-18.9 0-10.4 8.5-18.9 18.9-18.9 10.5 0 18.9 8.5 18.9 18.9 0 10.5-8.4 18.9-18.9 18.9z"/><path  d="m96.5 772.6c-10.5 0-18.9-8.5-18.9-18.9 0-10.5 8.4-18.9 18.9-18.9 10.4 0 18.9 8.4 18.9 18.9 0 10.4-8.5 18.9-18.9 18.9z"/><path fill-rule="evenodd" d="m116.2 521.1q0.3 0.5 0.3 1.2 0 0.7-0.3 1.1-0.2 0.2-0.6 0.4 0.6 0.2 0.9 0.7 0.3 0.5 0.3 1.1 0 0.7-0.4 1.2-0.2 0.4-0.5 0.6-0.4 0.3-0.9 0.4-0.5 0.1-1.1 0.1h-3.1c-0.2 0-0.3-0.1-0.3-0.3v-6.9c0-0.2 0.1-0.4 0.3-0.4h3.4q1.4 0 2 0.8zm-3.8 0.5c-0.2 0-0.4 0.2-0.4 0.4v0.9c0 0.2 0.2 0.4 0.4 0.4h1.1c0.2 0 0.5 0 0.7 0 0 0 0.3-0.1 0.5-0.2q0.3-0.2 0.3-0.7 0-0.5-0.4-0.7-0.4-0.1-0.9-0.1zm0 3c-0.2 0-0.4 0.1-0.4 0.3v1.3c0 0.2 0.2 0.4 0.4 0.4h1.1c0.2 0 0.5 0 0.7 0 0 0 0.2 0 0.4-0.1q0.5-0.3 0.5-1 0-0.6-0.5-0.8-0.2-0.1-0.7-0.1z"/><path fill-rule="evenodd" d="m121.6 521q0.4 0.1 0.7 0.5 0.2 0.2 0.3 0.6 0.2 0.3 0.2 0.7 0 0.5-0.3 1-0.2 0.5-0.8 0.7 0.5 0.2 0.7 0.6 0.2 0.3 0.2 1.1v0.1c0 0.2 0 0.5 0 0.8 0 0 0 0.1 0 0.2q0.1 0.3 0.3 0.5c0 0.1-0.2 0.1-0.4 0.1h-0.9c-0.2 0-0.4-0.1-0.4-0.3l-0.1-0.1q0-0.3 0-0.6v-0.3c0-0.2 0-0.5-0.1-0.7 0 0 0-0.4-0.2-0.5q-0.2-0.3-0.8-0.3h-1.1c-0.2 0-0.4 0.2-0.4 0.4v2.1c0 0.2-0.2 0.3-0.4 0.3h-0.7c-0.2 0-0.3-0.1-0.3-0.3v-6.4c0-0.3 0.1-0.4 0.3-0.4h3.1q0.7 0 1.1 0.2zm-2.7 1c-0.2 0-0.4 0.2-0.4 0.4v1.2c0 0.2 0.2 0.3 0.4 0.3h0.9c0.2 0 0.5 0 0.7 0 0 0 0.2 0 0.4-0.1q0.4-0.2 0.4-0.8 0-0.6-0.4-0.9-0.3-0.1-0.7-0.1z"/><path  d="m124.8 527.6c0 0.2-0.2 0.3-0.4 0.3h-0.7c-0.2 0-0.4-0.1-0.4-0.3v-6.4c0-0.3 0.2-0.4 0.4-0.4h0.7c0.2 0 0.4 0.1 0.4 0.4z"/><path  d="m125.3 521.2c0-0.3 0.2-0.4 0.4-0.4h0.7c0.2 0 0.4 0.1 0.4 0.4v5.1c0 0.2 0.2 0.3 0.4 0.3h2.8c0.2 0 0.4 0.2 0.4 0.4v0.6c0 0.2-0.2 0.3-0.4 0.3h-4.3c-0.2 0-0.4-0.1-0.4-0.3z"/><path  d="m130.8 521.2c0-0.3 0.1-0.4 0.4-0.4h0.7c0.2 0 0.4 0.1 0.4 0.4v5.1c0 0.2 0.1 0.3 0.4 0.3h2.8c0.2 0 0.4 0.2 0.4 0.4v0.6c0 0.2-0.2 0.3-0.4 0.3h-4.3c-0.3 0-0.4-0.1-0.4-0.3z"/><path  d="m137.6 527.6c0 0.2-0.1 0.3-0.3 0.3h-0.8c-0.2 0-0.4-0.1-0.4-0.3v-6.4c0-0.3 0.2-0.4 0.4-0.4h0.8c0.2 0 0.3 0.1 0.3 0.4z"/><path fill-rule="evenodd" d="m140.4 521.1c0-0.2 0.3-0.3 0.5-0.3h0.9c0.2 0 0.4 0.1 0.5 0.3l2.3 6.5c0.1 0.2 0 0.3-0.3 0.3h-0.8c-0.2 0-0.5-0.1-0.5-0.3l-0.3-0.8c0-0.2-0.2-0.3-0.5-0.3h-1.8c-0.2 0-0.5 0.1-0.5 0.3l-0.3 0.8c-0.1 0.2-0.3 0.3-0.5 0.3h-0.8c-0.2 0-0.3-0.1-0.2-0.3zm0.1 3.7c-0.1 0.2 0.1 0.4 0.3 0.4h1c0.3 0 0.4-0.2 0.3-0.4l-0.7-2.1c0-0.2-0.1-0.2-0.2 0z"/><path  d="m145 521.2c0-0.3 0.2-0.4 0.4-0.4h0.8c0.2 0 0.5 0.1 0.6 0.3l2.4 4.3c0.1 0.2 0.2 0.2 0.2 0v-4.2c0-0.3 0.2-0.4 0.4-0.4h0.6c0.3 0 0.4 0.1 0.4 0.4v6.4c0 0.2-0.1 0.3-0.4 0.3h-0.7c-0.2 0-0.5-0.1-0.6-0.3l-2.5-4.4c-0.1-0.2-0.2-0.2-0.2 0v4.4c0 0.2-0.2 0.3-0.4 0.3h-0.6c-0.2 0-0.4-0.1-0.4-0.3z"/><path  d="m156.6 520.8c0.2 0 0.4 0.1 0.4 0.4l-0.1 0.5c0 0.2-0.2 0.3-0.4 0.3h-1.4c-0.2 0-0.4 0.2-0.4 0.4v5.2c0 0.2-0.1 0.3-0.3 0.3h-0.8c-0.2 0-0.4-0.1-0.4-0.3v-5.2c0-0.2-0.1-0.4-0.3-0.4h-1.4c-0.2 0-0.4-0.1-0.4-0.3v-0.5c0-0.3 0.2-0.4 0.4-0.4z"/><path  d="m135.3 533.9c0.2 0 0.5 0.2 0.5 0.4 0 0 0.1 0.2 0.2 0.4q0.4 0.4 1.3 0.4 0.5 0 0.8-0.1 0.7-0.2 0.7-0.8 0-0.4-0.3-0.6-0.3-0.2-1-0.3l-0.4-0.1c-0.2-0.1-0.6-0.1-0.8-0.2 0 0-0.9-0.2-1.2-0.4q-0.7-0.5-0.7-1.6 0-0.9 0.7-1.6 0.7-0.6 2.1-0.6 1.1 0 2 0.6 0.8 0.6 0.8 1.7h-1.1c-0.2 0-0.4-0.1-0.4-0.3 0 0-0.2-0.4-0.5-0.6q-0.4-0.2-0.9-0.2-0.6 0-1 0.3-0.3 0.2-0.3 0.6 0 0.4 0.3 0.6 0.3 0.1 1 0.3l0.9 0.2c0.2 0 0.5 0.1 0.7 0.2 0 0 0.6 0.2 0.9 0.4q0.6 0.5 0.6 1.5 0 0.9-0.7 1.6-0.8 0.6-2.2 0.6-1.4 0-2.2-0.6-0.8-0.6-0.8-1.8z"/><path fill-rule="evenodd" d="m146.2 535.5q-0.9 0.8-2.4 0.8-1.5 0-2.3-0.8-1.1-1-1.1-2.9 0-2 1.1-3 0.8-0.8 2.3-0.8 1.5 0 2.4 0.8 1 1 1 3 0 1.9-1 2.9zm-1-1.1q0.5-0.6 0.5-1.8 0-1.2-0.5-1.9-0.5-0.7-1.4-0.7-0.9 0-1.4 0.7-0.5 0.6-0.5 1.9 0 1.2 0.5 1.8 0.5 0.7 1.4 0.7 0.9 0 1.4-0.7z"/><path  d="m147.6 529.4c0-0.2 0.2-0.4 0.4-0.4h0.7c0.2 0 0.4 0.2 0.4 0.4v5.1c0 0.2 0.2 0.4 0.4 0.4h2.8c0.2 0 0.4 0.1 0.4 0.3v0.6c0 0.2-0.2 0.3-0.4 0.3h-4.3c-0.2 0-0.4-0.1-0.4-0.3z"/><path  d="m158.2 529.9c0 0.2-0.1 0.4-0.3 0.4h-3.1c-0.2 0-0.4 0.1-0.4 0.3v0.8c0 0.2 0.2 0.4 0.4 0.4h2.7c0.2 0 0.4 0.1 0.4 0.4v0.4c0 0.2-0.2 0.4-0.4 0.4h-2.7c-0.2 0-0.4 0.2-0.4 0.4v1.1c0 0.2 0.2 0.4 0.4 0.4h2.8c0.2 0 0.5 0.1 0.5 0.3l0.2 0.6c0.1 0.2 0 0.3-0.2 0.3h-4.8c-0.2 0-0.3-0.1-0.3-0.3v-6.4c0-0.2 0.1-0.4 0.3-0.4h4.6c0.2 0 0.3 0.2 0.3 0.4z"/><path  d="m159.1 524.5l0.5 1.9q0 0 0 0 0.1 0 0.1 0l1.1-2.8q-0.1-0.1-0.2-0.2l-1.1 0.4q0 0.1 0 0.1c0 0.3-0.1 0.5-0.4 0.6z"/><path  d="m162.8 523.2h-1q-0.1 0.3-0.3 0.4l0.8 2.6q0 0 0.1 0 0 0 0.1 0l0.8-2.5q-0.4-0.2-0.5-0.5z"/><path  d="m160 529.5q-0.1-0.4-0.2-0.9c-0.1-0.3-0.1-0.6-0.2-0.9-0.3 0-0.5-0.2-0.6-0.4l-0.6 0.1q0.1 1.2 0.1 2.7l1.1-0.1c0-0.2 0.2-0.4 0.4-0.5z"/><path  d="m160 526.5q0.2 0.1 0.2 0.3h1.5c0.1-0.2 0.2-0.4 0.4-0.5l-0.9-2.6q0 0-0.1 0 0 0-0.1 0z"/><path  d="m161.1 531.8q0.3 0 0.5 0.1l0.4-1.3q-0.2-0.1-0.3-0.4h-0.8c-0.1 0.2-0.2 0.4-0.4 0.5l0.3 1.2q0.2-0.1 0.3-0.1z"/><path  d="m163 527c0 0.3-0.2 0.5-0.5 0.5v1.9c0.2 0.1 0.4 0.2 0.5 0.4l0.8-0.1q0-0.3-0.1-0.7c0-0.9 0-1.5 0-2z"/><path  d="m160.8 522.5q0.1-0.1 0.3-0.1c0.1-0.8 0.2-1.6 0.3-2.3q-0.3 0-0.5-0.3l-1.2 0.9q0.1 0.1 0.1 0.3 0 0.3-0.1 0.5z"/><path  d="m160.2 529.5c0.3 0 0.6 0.2 0.7 0.5l0.8-0.1q0.1-0.1 0.2-0.2l-2-2.1q0 0-0.1 0c0.2 0.7 0.3 1.4 0.4 1.9z"/><path  d="m165.9 518.7q-0.5-0.2-1-0.5v0.6c0.5 0.1 0.9 0.6 0.9 1.1q0 0.1 0 0.2l0.8 0.2q0-0.6-0.1-1c0 0 0-0.5-0.6-0.6z"/><path  d="m158.4 519.2q0.3-0.2 0.6-0.5l-0.2-0.6q0 0-0.1 0c-0.3 0-0.5-0.3-0.5-0.5 0-0.3 0.2-0.5 0.5-0.5 0.3 0 0.5 0.2 0.5 0.5q0 0.2-0.2 0.3l0.2 0.6q0.5-0.4 1-1 0.1-0.1 0.2-0.2l-0.2-0.3q-0.1 0.1-0.3 0.1c-0.3 0-0.6-0.3-0.6-0.7 0-0.4 0.3-0.7 0.6-0.7 0.4 0 0.7 0.3 0.7 0.7q0 0.3-0.2 0.4l0.2 0.4q0.4-0.3 1-0.5v-0.3q-0.1 0-0.1 0c-0.5 0-0.8-0.4-0.8-0.8 0-0.5 0.3-0.9 0.8-0.9 0.4 0 0.8 0.4 0.8 0.9 0 0.3-0.2 0.6-0.5 0.7v0.3q0.5-0.1 1 0 0.1 0 0.2 0l0.1-0.4c-0.4-0.1-0.7-0.5-0.7-0.9 0-0.6 0.5-1 1-1 0.6 0 1 0.4 1 1 0 0.5-0.4 0.9-1 0.9q0 0-0.1 0v0.5c0.3 0.1 0.6 0.3 1 0.6q0.2 0.2 0.5 0.4l0.5-1.1c-0.4-0.1-0.7-0.5-0.7-1 0-0.6 0.5-1.2 1.1-1.2 0.7 0 1.2 0.6 1.2 1.2 0 0.6-0.5 1.1-1.2 1.1q-0.1 0-0.2 0l-0.5 1.1q0.4 0.3 0.9 0.5c0 0 0.3 0.1 0.5-0.5q0 0 0 0c0.2-0.7 0.8-1.1 0.8-2 0 0-0.2-2.1-1.2-2.1-1.2 0-1.5 0.8-1.5 0.8 0 0-0.3-0.8-1.1-0.8-0.7 0-1 0.8-1 0.8 0 0-0.5-0.4-1.1-0.3-0.8 0.2-0.9 1.1-0.9 1.1 0 0-0.5-0.3-1.1 0-0.4 0.3-0.6 0.9-0.5 1.2 0 0-1 0.1-1.1 1.2 0 0.5 0.1 0.8 0.1 1.1 0.3 0.6 0.6 0.4 0.6 0.4z"/><path  d="m162.1 533.6c0-0.5-0.4-0.9-1-0.9-0.5 0-0.9 0.4-0.9 0.9 0 0.5 0.4 0.9 0.9 0.9 0.6 0 1-0.4 1-0.9z"/><path  d="m158.8 523.3v-1.5q-0.2 0-0.3-0.2l-1.2 1q0.1 0.9 0.4 1.8l0.5-0.3q0-0.1 0-0.2c0-0.3 0.2-0.6 0.6-0.6z"/><path  d="m160.6 531.9l-0.3-1.1q-0.1 0-0.1 0c-0.3 0-0.5-0.2-0.6-0.5h-1.1q0.1 1.5-0.2 3.3 0 0.1 0 0.2l1.1-0.1q0-0.1 0-0.1c0-0.8 0.5-1.4 1.2-1.7z"/><path  d="m158.3 527.2l0.7-0.2q0 0 0 0c0-0.2 0.1-0.5 0.3-0.6l-0.4-1.8q0 0 0 0c-0.3 0-0.4-0.1-0.6-0.3l-0.5 0.3c0.2 0.8 0.4 1.7 0.5 2.5q0 0.1 0 0.1z"/><path  d="m164.3 523.2c-0.1 0.3-0.4 0.6-0.7 0.6q-0.1 0-0.1 0l-0.8 2.5q0.3 0.1 0.3 0.4h0.7c0.1-0.3 0.2-0.7 0.4-1.1 0.2-0.6 0.8-1.3 1.3-2.1z"/><path  d="m165.7 520.4c-0.1 0.4-0.5 0.7-1 0.7q-0.2 0-0.3-0.1l-0.4 1.2c0.2 0.2 0.4 0.4 0.4 0.7q0 0.1 0 0.1l1.2 0.3c0.5-0.8 0.9-1.7 1-2.7z"/><path  d="m162.9 533.5h1.2q0-0.1 0-0.2c-0.1-2-0.2-2.4-0.3-3.3l-0.8 0.1c0 0.3-0.3 0.6-0.6 0.6q-0.1 0-0.2 0l-0.4 1.3c0.6 0.2 1.1 0.8 1.1 1.5z"/><path  d="m162.3 529.4l-0.1-1.9c-0.2 0-0.4-0.2-0.5-0.5l-1.4 0.1q-0.1 0.2-0.2 0.4l1.9 2q0.1 0 0.2-0.1z"/><path  d="m159 523.3q0.3 0.1 0.4 0.3l1.1-0.4q0-0.1 0-0.1 0-0.2 0.1-0.4l-1.1-1q-0.2 0.1-0.4 0.2z"/><path  d="m161 535.3c-0.8 0-1.4-0.6-1.6-1.4l-1.1 0.2c-0.1 2.1 1.9 2.6 2.7 2.6z"/><path  d="m162.9 533.8c-0.1 0.8-0.8 1.5-1.6 1.5v1.4c0.8-0.1 2.6-0.9 2.8-3z"/><path  d="m158.3 521.4q-0.1-0.1-0.1-0.4c0-0.4 0.3-0.7 0.7-0.8l0.1-1q-0.5 0.5-0.9 0.7c-0.4 0.2-0.6 0.6-0.6 0.7-0.2 0.5-0.3 1.1-0.3 1.7z"/><path  d="m164.6 518.8l0.1-0.7q-0.4-0.3-0.7-0.5-0.2-0.2-0.5-0.4l0.9 1.6q0.1 0 0.2 0z"/><path  d="m162.8 516.9q-0.5 0-0.9 0.1l-0.1 1.2c0.5 0.1 0.8 0.5 0.8 1q0 0 0 0.1l1 0.2q0.2-0.4 0.5-0.6l-1-1.9q-0.1-0.1-0.3-0.1z"/><path  d="m162.6 519.5q-0.2 0.3-0.4 0.5l1.1 2.2q0.1-0.1 0.3-0.1 0.1 0 0.2 0l0.4-1.1c-0.4-0.2-0.7-0.6-0.7-1.1q0 0 0-0.1z"/><path  d="m161.3 522.4c0.3 0.1 0.4 0.3 0.5 0.5h1c0-0.2 0.1-0.5 0.3-0.6l-1.1-2.2q-0.2 0.1-0.3 0.1c-0.1 0.7-0.3 1.6-0.4 2.2z"/><path  d="m159.2 520.2q0 0 0 0l0.9-2q-0.5 0.4-0.8 0.8z"/><path  d="m159.4 520.3q0.1 0.1 0.2 0.2l1.2-0.9q-0.1-0.2-0.1-0.4c0-0.5 0.3-1 0.9-1v-1.1c-0.4 0.1-0.8 0.3-1 0.6z"/><path  d="m144.7 533.7q0.3-0.4 0.3-1.1 0-0.8-0.3-1.2-0.3-0.4-0.9-0.4-0.6 0-0.9 0.4-0.3 0.4-0.3 1.2 0 0.7 0.3 1.1 0.3 0.4 0.9 0.4 0.6 0 0.9-0.4z"/></svg>