<svg xmlns="http://www.w3.org/2000/svg" id="osmdSvgPage1" width="640" height="125.19999999999999" viewBox="0 0 640 125.19999999999999" style="background-color: rgb(0, 0, 0);">
  <g class="staffline" id="Voice0-1">
    <g class="vf-measure" id="1">
      <path stroke-width="1" fill="none" stroke="#FFFFFF" stroke-dasharray="none" d="M20 43.2L270.99845673896704 43.2"/>
      <path stroke-width="1" fill="none" stroke="#FFFFFF" stroke-dasharray="none" d="M20 53.2L270.99845673896704 53.2"/>
      <path stroke-width="1" fill="none" stroke="#FFFFFF" stroke-dasharray="none" d="M20 63.2L270.99845673896704 63.2"/>
      <path stroke-width="1" fill="none" stroke="#FFFFFF" stroke-dasharray="none" d="M20 73.2L270.99845673896704 73.2"/>
      <path stroke-width="1" fill="none" stroke="#FFFFFF" stroke-dasharray="none" d="M20 83.2L270.99845673896704 83.2"/>
      <rect stroke-width="0.3" fill="#FFFFFF" stroke="#FFFFFF" stroke-dasharray="none" x="270.99845673896704" y="42.7" width="1" height="41"/>
      <g class="vf-clef">
        <path stroke-width="0.3" fill="#FFFFFF" stroke="none" stroke-dasharray="none" d="M25 73.2M39.0544 30.028800000000004C39.112 30.000000000000007,39.1696 30.000000000000007,39.256 30.000000000000007C39.6016 30.000000000000007,40.0048 30.288000000000004,40.580799999999996 31.008000000000003C42.9136 33.686400000000006,44.5552 38.352000000000004,44.5552 42.153600000000004C44.5552 42.44160000000001,44.4976 42.672000000000004,44.4976 42.96000000000001C44.2384 47.4816,42.3952 51.1968,38.7376 54.71040000000001L37.7584 55.6608L37.4128 56.0352L37.4128 56.150400000000005L37.6144 57.0144L37.931200000000004 58.5696L38.248 60.009600000000006C38.68 61.968,38.8528 62.976,38.8528 62.976C38.8528 62.976,38.8528 62.976,38.8528 62.976C38.8528 62.976,38.968 62.976,39.112 62.9472C39.256 62.9472,39.7168 62.8896,40.2064 62.8896C40.552 62.8896,40.8976 62.9472,41.0704 62.9472C45.1312 63.4656,48.270399999999995 66.37440000000001,49.1632 70.464C49.336 71.1264,49.3936 71.8464,49.3936 72.5664C49.3936 76.4544,47.0608 80.1696,43.172799999999995 81.9264C42.9424 82.0704,42.855999999999995 82.0992,42.855999999999995 82.0992L42.855999999999995 82.128C42.855999999999995 82.128,43.028800000000004 82.7904,43.172799999999995 83.53920000000001L43.6048 85.72800000000001L44.007999999999996 87.4848C44.2384 88.608,44.3536 89.4144,44.3536 90.1344C44.3536 90.768,44.2672 91.344,44.1232 92.0064C43.144 96.0096,39.6592 98.4,36.0304 98.4C34.2448 98.4,32.4016 97.824,30.788800000000002 96.528C29.3488 95.3184,28.7152 94.224,28.7152 92.784C28.7152 90.2496,30.759999999999998 88.464,32.8912 88.464C33.64 88.464,34.3888 88.6944,35.1088 89.1264C36.3184 89.9616,36.8656 91.2288,36.8656 92.4672C36.8656 94.368,35.5408 96.24000000000001,33.2656 96.384L33.0352 96.384L33.208 96.4992C34.1584 96.9024,35.1088 97.104,36.0304 97.104C38.3632 97.104,40.552 95.92320000000001,41.8768 93.8784C42.6256 92.7264,43.028800000000004 91.3728,43.028800000000004 90.0192C43.028800000000004 89.5008,42.9424 88.9824,42.827200000000005 88.4064C42.827200000000005 88.3488,42.7408 87.888,42.6256 87.456C41.992000000000004 84.3456,41.617599999999996 82.5312,41.617599999999996 82.5312C41.617599999999996 82.5312,41.617599999999996 82.5312,41.617599999999996 82.5312C41.56 82.5312,41.4448 82.5312,41.3584 82.5888C41.0704 82.6464,40.4656 82.7904,40.2064 82.8192C39.5728 82.9056,38.968 82.9344,38.391999999999996 82.9344C32.7472 82.9344,27.5056 79.1328,25.6912 73.5168C25.2304 72.0192,24.9712 70.5216,24.9712 69.024C24.9712 66.0288,25.9216 63.0912,27.7648 60.470400000000005C29.7808 57.619200000000006,31.7968 55.1712,34.2736 52.63680000000001L35.1376 51.744L34.936 50.6784L34.5616 48.921600000000005L34.072 46.675200000000004C33.928 45.84,33.7552 45.03360000000001,33.7264 44.860800000000005C33.5824 43.9104,33.496 42.988800000000005,33.496 42.0384C33.496 38.409600000000005,34.6768 34.924800000000005,36.8944 32.13120000000001C37.556799999999996 31.267200000000003,38.7376 30.1152,39.0544 30.028800000000004M40.8112 35.7312C40.7536 35.7312,40.6672 35.7312,40.580799999999996 35.7312C39.4 35.7312,37.873599999999996 36.8256,36.8368 38.4384C35.7712 40.022400000000005,35.224000000000004 42.12480000000001,35.224000000000004 44.284800000000004C35.224000000000004 44.860800000000005,35.2528 45.4656,35.3392 46.07040000000001C35.4256 46.50240000000001,35.4544 46.790400000000005,35.684799999999996 47.827200000000005L36.088 49.641600000000004C36.203199999999995 50.1888,36.2896 50.6208,36.2896 50.6784L36.2896 50.6784C36.3184 50.6784,37.2112 49.699200000000005,37.4992 49.3536C40.3792 46.0992,42.1072 42.672000000000004,42.4816 39.648C42.510400000000004 39.36000000000001,42.510400000000004 39.1296,42.510400000000004 38.84160000000001C42.510400000000004 37.948800000000006,42.3952 37.0848,42.1936 36.624C41.9632 36.1632,41.4448 35.7888,40.8112 35.7312M36.4624 57.9936C36.4048 57.5904,36.3184 57.2736,36.3184 57.216C36.3184 57.216,36.3184 57.216,36.2896 57.216C36.232 57.216,34.9936 58.656000000000006,34.129599999999996 59.664C32.6608 61.449600000000004,31.1056 63.5808,30.472 64.61760000000001C29.2624 66.6624,28.6576 68.9376,28.6576 71.184C28.6576 72.6528,28.9456 74.06400000000001,29.464 75.41760000000001C31.019199999999998 79.4208,34.5904 81.9264,38.4784 81.9264C38.9392 81.9264,39.4576 81.8976,39.947199999999995 81.8112C40.580799999999996 81.696,41.3584 81.4656,41.3584 81.3792L41.3584 81.3792C41.3584 81.3792,41.300799999999995 81.0912,41.2144 80.7744L40.3792 76.656L39.7168 73.5744L39.2848 71.4432L38.824 69.3696C38.5936 68.1312,38.5072 67.8144,38.5072 67.8144C38.5072 67.8144,38.5072 67.7856,38.4784 67.7856C38.3056 67.7856,37.384 68.24640000000001,36.9808 68.5344C35.4832 69.5712,34.705600000000004 71.2128,34.705600000000004 72.82560000000001C34.705600000000004 74.352,35.4544 75.8784,36.8944 76.77120000000001C37.2112 76.9728,37.3264 77.1456,37.3264 77.3472C37.3264 77.376,37.3264 77.4624,37.3264 77.4912C37.2688 77.8368,37.0672 77.9808,36.7792 77.9808C36.664 77.9808,36.519999999999996 77.952,36.3472 77.8656C33.6976 76.7136,31.912 73.97760000000001,31.912 70.9824L31.912 70.9824C31.912 67.52640000000001,34.072 64.5312,37.384 63.3504L37.556799999999996 63.2928L37.2688 61.8528L36.4624 57.9936M40.782399999999996 67.61280000000001C40.552 67.584,40.321600000000004 67.584,40.1488 67.584C40.0912 67.584,40.0048 67.584,39.947199999999995 67.584L39.803200000000004 67.584L39.9184 68.1024L40.5232 70.9248L40.8976 72.768L41.300799999999995 74.5824L42.1072 78.5856L42.424 80.11200000000001C42.5392 80.51520000000001,42.5968 80.8608,42.6256 80.8608C42.6256 80.8608,42.6256 80.8608,42.6256 80.8608C42.654399999999995 80.8608,43.144 80.5728,43.4608 80.3424C44.9296 79.3056,46.024 77.6928,46.4272 76.0224C46.571200000000005 75.4752,46.6288 74.89920000000001,46.6288 74.352C46.6288 71.0112,44.152 67.9872,40.782399999999996 67.61280000000001"/>
      </g>
      <g class="vf-keysignature">
        <path stroke-width="0.3" fill="#FFFFFF" stroke="none" stroke-dasharray="none" d="M61 43.2M66.93712 28.562400000000004C67.0192 28.507680000000004,67.04656 28.507680000000004,67.156 28.507680000000004C67.4296 28.507680000000004,67.62112 28.617120000000003,67.7032 28.863360000000004L67.73056 28.945440000000005L67.75792 32.5296L67.75792 36.14112L68.46928 35.949600000000004C68.87968 35.840160000000004,69.18064 35.8128,69.37216 35.8128C69.6184 35.8128,69.72784 35.89488,69.80992 36.11376C69.83727999999999 36.195840000000004,69.83727999999999 36.825120000000005,69.83727999999999 37.50912C69.83727999999999 38.165760000000006,69.83727999999999 38.84976,69.80992 38.877120000000005C69.70048 39.15072000000001,69.6184 39.17808,68.87968 39.369600000000005C67.94944 39.615840000000006,67.75792 39.6432,67.75792 39.6432C67.75792 39.6432,67.75792 40.354560000000006,67.75792 41.421600000000005C67.75792 41.804640000000006,67.75792 42.21504,67.75792 42.652800000000006L67.75792 45.60768L68.46928 45.416160000000005C68.90704 45.306720000000006,69.18064 45.279360000000004,69.37216 45.279360000000004C69.50896 45.279360000000004,69.6184 45.306720000000006,69.70048 45.416160000000005C69.83727999999999 45.58032,69.83727999999999 45.552960000000006,69.83727999999999 46.56528L69.83727999999999 46.975680000000004L69.83727999999999 47.41344C69.83727999999999 48.425760000000004,69.83727999999999 48.3984,69.70048 48.5352C69.59103999999999 48.64464,69.6184 48.64464,68.35984 48.9456C68.08624 49.027680000000004,67.84 49.10976,67.81264 49.10976L67.75792 49.10976L67.75792 52.74864L67.73056 56.414880000000004L67.7032 56.52432C67.62112 56.7432,67.40224 56.85264,67.156 56.85264C66.99184 56.85264,66.7456 56.7432,66.63616 56.52432L66.6088 56.414880000000004L66.6088 52.912800000000004L66.6088 49.410720000000005L66.58144 49.410720000000005L65.95216 49.57488L64.77568 49.875840000000004C64.47472 49.95792,64.20112 50.012640000000005,64.20112 50.012640000000005C64.1464 50.012640000000005,64.1464 50.20416,64.1464 53.7336L64.1464 57.509280000000004L64.11904 57.59136C64.0096 57.81024,63.79072 57.91968,63.599199999999996 57.91968C63.38032 57.91968,63.13408 57.81024,63.02464 57.59136L62.99728 57.509280000000004L62.99728 53.897760000000005C62.99728 50.55984,62.99728 50.3136,62.96992 50.3136C62.96992 50.3136,62.96992 50.3136,62.96992 50.3136C62.66896 50.39568,61.62928 50.66928,61.51984 50.66928C61.2736 50.66928,61.10944 50.505120000000005,61 50.3136C61 50.20416,61 50.20416,61 48.918240000000004L61 47.63232L61.02736 47.52288C61.1368 47.24928,61.1368 47.24928,62.66896 46.866240000000005L62.99728 46.78416L62.99728 43.80192C62.99728 41.038560000000004,62.99728 40.84704,62.96992 40.84704C62.96992 40.84704,62.96992 40.84704,62.96992 40.84704C62.66896 40.929120000000005,61.62928 41.175360000000005,61.51984 41.175360000000005C61.2736 41.175360000000005,61.10944 41.038560000000004,61 40.84704C61 40.7376,61 40.7376,61 39.45168L61 38.165760000000006L61.02736 38.05632C61.1368 37.782720000000005,61.1368 37.782720000000005,62.66896 37.399680000000004L62.99728 37.317600000000006L62.99728 33.678720000000006L62.99728 30.039840000000005L63.02464 29.930400000000006C63.13408 29.73888,63.38032 29.574720000000003,63.599199999999996 29.574720000000003C63.68128 29.574720000000003,63.736 29.629440000000002,63.81808 29.656800000000004C63.92752 29.684160000000006,64.03696 29.820960000000003,64.11904 29.930400000000006L64.1464 30.039840000000005L64.1464 33.541920000000005L64.1464 37.01664L64.31056 37.01664C64.36528 36.98928,64.85776 36.87984,65.35024 36.7704L66.41728 36.442080000000004L66.6088 36.41472L66.6088 32.693760000000005L66.6088 28.945440000000005L66.63616 28.863360000000004C66.71824 28.75392,66.80032 28.617120000000003,66.93712 28.562400000000004M66.6088 42.95376C66.6088 41.284800000000004,66.6088 39.944160000000004,66.6088 39.944160000000004L66.6088 39.944160000000004C66.58144 39.944160000000004,66.30784 40.02624,65.97952 40.108320000000006L64.77568 40.40928C64.47472 40.49136,64.20112 40.54608,64.20112 40.54608C64.1464 40.54608,64.1464 40.710240000000006,64.1464 43.52832L64.1464 46.53792L64.31056 46.483200000000004C64.36528 46.45584,64.85776 46.3464,65.35024 46.23696L66.41728 45.96336L66.6088 45.881280000000004L66.6088 42.95376"/>
        <path stroke-width="0.3" fill="#FFFFFF" stroke="none" stroke-dasharray="none" d="M70.83727999999999 58.2M76.77439999999999 43.562400000000004C76.85647999999999 43.50768000000001,76.88383999999999 43.50768000000001,76.99328 43.50768000000001C77.26687999999999 43.50768000000001,77.4584 43.61712,77.54047999999999 43.86336L77.56783999999999 43.945440000000005L77.59519999999999 47.5296L77.59519999999999 51.14112L78.30655999999999 50.949600000000004C78.71695999999999 50.840160000000004,79.01791999999999 50.8128,79.20943999999999 50.8128C79.45567999999999 50.8128,79.56512 50.89488,79.6472 51.11376C79.67455999999999 51.195840000000004,79.67455999999999 51.825120000000005,79.67455999999999 52.50912C79.67455999999999 53.165760000000006,79.67455999999999 53.84976,79.6472 53.877120000000005C79.53775999999999 54.15072000000001,79.45567999999999 54.17808,78.71695999999999 54.369600000000005C77.78671999999999 54.615840000000006,77.59519999999999 54.6432,77.59519999999999 54.6432C77.59519999999999 54.6432,77.59519999999999 55.354560000000006,77.59519999999999 56.421600000000005C77.59519999999999 56.804640000000006,77.59519999999999 57.21504,77.59519999999999 57.652800000000006L77.59519999999999 60.60768L78.30655999999999 60.416160000000005C78.74431999999999 60.306720000000006,79.01791999999999 60.279360000000004,79.20943999999999 60.279360000000004C79.34624 60.279360000000004,79.45567999999999 60.306720000000006,79.53775999999999 60.416160000000005C79.67455999999999 60.58032,79.67455999999999 60.552960000000006,79.67455999999999 61.56528L79.67455999999999 61.975680000000004L79.67455999999999 62.41344C79.67455999999999 63.425760000000004,79.67455999999999 63.3984,79.53775999999999 63.5352C79.42831999999999 63.64464,79.45567999999999 63.64464,78.19712 63.9456C77.92352 64.02768,77.67728 64.10976000000001,77.64992 64.10976000000001L77.59519999999999 64.10976000000001L77.59519999999999 67.74864L77.56783999999999 71.41488L77.54047999999999 71.52432C77.4584 71.7432,77.23952 71.85264000000001,76.99328 71.85264000000001C76.82911999999999 71.85264000000001,76.58287999999999 71.7432,76.47344 71.52432L76.44608 71.41488L76.44608 67.9128L76.44608 64.41072L76.41872 64.41072L75.78944 64.57488000000001L74.61295999999999 64.87584C74.312 64.95792,74.0384 65.01264,74.0384 65.01264C73.98367999999999 65.01264,73.98367999999999 65.20416,73.98367999999999 68.7336L73.98367999999999 72.50928L73.95631999999999 72.59136000000001C73.84688 72.81024000000001,73.62799999999999 72.91968,73.43647999999999 72.91968C73.21759999999999 72.91968,72.97135999999999 72.81024000000001,72.86192 72.59136000000001L72.83456 72.50928L72.83456 68.89776C72.83456 65.55984000000001,72.83456 65.31360000000001,72.8072 65.31360000000001C72.8072 65.31360000000001,72.8072 65.31360000000001,72.8072 65.31360000000001C72.50623999999999 65.39568,71.46655999999999 65.66928,71.35712 65.66928C71.11088 65.66928,70.94672 65.50512,70.83727999999999 65.31360000000001C70.83727999999999 65.20416,70.83727999999999 65.20416,70.83727999999999 63.918240000000004L70.83727999999999 62.63232L70.86464 62.52288C70.97407999999999 62.24928,70.97407999999999 62.24928,72.50623999999999 61.866240000000005L72.83456 61.78416L72.83456 58.80192C72.83456 56.038560000000004,72.83456 55.84704,72.8072 55.84704C72.8072 55.84704,72.8072 55.84704,72.8072 55.84704C72.50623999999999 55.929120000000005,71.46655999999999 56.175360000000005,71.35712 56.175360000000005C71.11088 56.175360000000005,70.94672 56.038560000000004,70.83727999999999 55.84704C70.83727999999999 55.7376,70.83727999999999 55.7376,70.83727999999999 54.45168L70.83727999999999 53.165760000000006L70.86464 53.05632C70.97407999999999 52.782720000000005,70.97407999999999 52.782720000000005,72.50623999999999 52.399680000000004L72.83456 52.317600000000006L72.83456 48.678720000000006L72.83456 45.039840000000005L72.86192 44.930400000000006C72.97135999999999 44.73888,73.21759999999999 44.57472,73.43647999999999 44.57472C73.51856 44.57472,73.57328 44.62944,73.65535999999999 44.656800000000004C73.7648 44.684160000000006,73.87423999999999 44.82096,73.95631999999999 44.930400000000006L73.98367999999999 45.039840000000005L73.98367999999999 48.541920000000005L73.98367999999999 52.01664L74.14783999999999 52.01664C74.20255999999999 51.98928,74.69503999999999 51.87984,75.18751999999999 51.7704L76.25456 51.442080000000004L76.44608 51.41472L76.44608 47.693760000000005L76.44608 43.945440000000005L76.47344 43.86336C76.55551999999999 43.75392,76.63759999999999 43.61712,76.77439999999999 43.562400000000004M76.44608 57.95376C76.44608 56.284800000000004,76.44608 54.944160000000004,76.44608 54.944160000000004L76.44608 54.944160000000004C76.41872 54.944160000000004,76.14511999999999 55.02624,75.81679999999999 55.108320000000006L74.61295999999999 55.40928C74.312 55.49136,74.0384 55.54608,74.0384 55.54608C73.98367999999999 55.54608,73.98367999999999 55.710240000000006,73.98367999999999 58.52832L73.98367999999999 61.53792L74.14783999999999 61.483200000000004C74.20255999999999 61.45584,74.69503999999999 61.3464,75.18751999999999 61.23696L76.25456 60.96336L76.44608 60.881280000000004L76.44608 57.95376"/>
        <path stroke-width="0.3" fill="#FFFFFF" stroke="none" stroke-dasharray="none" d="M80.67456 38.2M86.61168 23.562400000000004C86.69376 23.507680000000004,86.72112 23.507680000000004,86.83056 23.507680000000004C87.10416 23.507680000000004,87.29568 23.617120000000003,87.37776 23.863360000000004L87.40512 23.945440000000005L87.43248 27.529600000000002L87.43248 31.141120000000004L88.14384 30.949600000000004C88.55424 30.840160000000004,88.8552 30.812800000000003,89.04672 30.812800000000003C89.29296 30.812800000000003,89.4024 30.894880000000004,89.48448 31.113760000000003C89.51184 31.195840000000004,89.51184 31.825120000000002,89.51184 32.50912C89.51184 33.165760000000006,89.51184 33.84976,89.48448 33.877120000000005C89.37504 34.15072000000001,89.29296 34.17808,88.55424 34.369600000000005C87.624 34.615840000000006,87.43248 34.6432,87.43248 34.6432C87.43248 34.6432,87.43248 35.354560000000006,87.43248 36.421600000000005C87.43248 36.804640000000006,87.43248 37.21504,87.43248 37.652800000000006L87.43248 40.60768L88.14384 40.416160000000005C88.5816 40.306720000000006,88.8552 40.279360000000004,89.04672 40.279360000000004C89.18352 40.279360000000004,89.29296 40.306720000000006,89.37504 40.416160000000005C89.51184 40.58032,89.51184 40.552960000000006,89.51184 41.56528L89.51184 41.975680000000004L89.51184 42.41344C89.51184 43.425760000000004,89.51184 43.3984,89.37504 43.5352C89.2656 43.64464,89.29296 43.64464,88.0344 43.9456C87.7608 44.027680000000004,87.51456 44.10976,87.4872 44.10976L87.43248 44.10976L87.43248 47.74864L87.40512 51.414880000000004L87.37776 51.52432C87.29568 51.7432,87.0768 51.85264,86.83056 51.85264C86.6664 51.85264,86.42016 51.7432,86.31072 51.52432L86.28336 51.414880000000004L86.28336 47.912800000000004L86.28336 44.410720000000005L86.256 44.410720000000005L85.62672 44.57488L84.45024 44.875840000000004C84.14928 44.95792,83.87568 45.012640000000005,83.87568 45.012640000000005C83.82096 45.012640000000005,83.82096 45.20416,83.82096 48.7336L83.82096 52.509280000000004L83.7936 52.59136C83.68416 52.81024,83.46527999999999 52.91968,83.27376 52.91968C83.05488 52.91968,82.80864 52.81024,82.6992 52.59136L82.67184 52.509280000000004L82.67184 48.897760000000005C82.67184 45.55984,82.67184 45.3136,82.64448 45.3136C82.64448 45.3136,82.64448 45.3136,82.64448 45.3136C82.34352 45.39568,81.30384 45.66928,81.1944 45.66928C80.94816 45.66928,80.784 45.505120000000005,80.67456 45.3136C80.67456 45.20416,80.67456 45.20416,80.67456 43.918240000000004L80.67456 42.63232L80.70192 42.52288C80.81136 42.24928,80.81136 42.24928,82.34352 41.866240000000005L82.67184 41.78416L82.67184 38.80192C82.67184 36.038560000000004,82.67184 35.84704,82.64448 35.84704C82.64448 35.84704,82.64448 35.84704,82.64448 35.84704C82.34352 35.929120000000005,81.30384 36.175360000000005,81.1944 36.175360000000005C80.94816 36.175360000000005,80.784 36.038560000000004,80.67456 35.84704C80.67456 35.7376,80.67456 35.7376,80.67456 34.45168L80.67456 33.165760000000006L80.70192 33.05632C80.81136 32.782720000000005,80.81136 32.782720000000005,82.34352 32.399680000000004L82.67184 32.317600000000006L82.67184 28.678720000000006L82.67184 25.039840000000005L82.6992 24.930400000000006C82.80864 24.73888,83.05488 24.574720000000003,83.27376 24.574720000000003C83.35584 24.574720000000003,83.41056 24.629440000000002,83.49264 24.656800000000004C83.60208 24.684160000000006,83.71152 24.820960000000003,83.7936 24.930400000000006L83.82096 25.039840000000005L83.82096 28.541920000000005L83.82096 32.01664L83.98512 32.01664C84.03984 31.989280000000004,84.53232 31.87984,85.0248 31.770400000000002L86.09184 31.442080000000004L86.28336 31.414720000000003L86.28336 27.693760000000005L86.28336 23.945440000000005L86.31072 23.863360000000004C86.3928 23.75392,86.47488 23.617120000000003,86.61168 23.562400000000004M86.28336 37.95376C86.28336 36.284800000000004,86.28336 34.944160000000004,86.28336 34.944160000000004L86.28336 34.944160000000004C86.256 34.944160000000004,85.9824 35.02624,85.65408 35.108320000000006L84.45024 35.40928C84.14928 35.49136,83.87568 35.54608,83.87568 35.54608C83.82096 35.54608,83.82096 35.710240000000006,83.82096 38.52832L83.82096 41.53792L83.98512 41.483200000000004C84.03984 41.45584,84.53232 41.3464,85.0248 41.23696L86.09184 40.96336L86.28336 40.881280000000004L86.28336 37.95376"/>
      </g>
      <g class="vf-stavenote" id="vf-auto1125">
        <g class="vf-note" pointer-events="bounding-box">
          <g class="vf-notehead" pointer-events="bounding-box">
            <path stroke-width="0.3" fill="#FFFFFF" stroke="none" stroke-dasharray="none" d="M102.51184 63.2M103.88776 49.019600000000004C103.91584 49.019600000000004,103.94392 48.99152,104.00008000000001 48.99152C104.14048000000001 48.99152,104.25280000000001 49.07576,104.47744 49.27232C104.56168000000001 49.384640000000005,104.70208000000001 49.49696,104.78632 49.5812L105.20752 49.91816L105.62872 50.311280000000004L105.9376 50.59208L106.27456000000001 50.900960000000005L107.62240000000001 52.08032L109.67224 53.9336C110.7112 54.83216,110.7112 54.83216,110.7112 55.02872000000001L110.7112 55.0568L110.7112 55.225280000000005L110.45848000000001 55.6184C109.08256 57.668240000000004,108.38056 60.02696,108.38056 62.18912C108.38056 64.43552,109.11064 66.54152,110.59888000000001 67.9736C110.79544000000001 68.22632,110.90776000000001 68.28248,110.90776000000001 68.36672C110.93584000000001 68.45096000000001,110.93584000000001 68.47904,110.93584000000001 68.56328C110.93584000000001 68.78792,110.76736000000001 68.98448,110.51464000000001 68.98448C110.45848000000001 68.98448,110.40232 68.98448,110.37424 68.98448C110.09344 68.87216000000001,109.78456000000001 68.84408,109.44760000000001 68.84408C108.77368000000001 68.84408,108.04360000000001 69.04064,107.45392000000001 69.43376C106.33072000000001 70.19192000000001,105.71296000000001 71.39936,105.71296000000001 72.7472C105.71296000000001 73.98272,106.27456000000001 75.35864000000001,107.3416 76.42568C107.62240000000001 76.70648,107.70664000000001 76.87496,107.70664000000001 77.01536C107.70664000000001 77.12768,107.65048 77.21192,107.59432000000001 77.29616C107.45392000000001 77.38040000000001,107.39776 77.46464,107.31352000000001 77.46464C107.17312000000001 77.46464,107.00464000000001 77.32424,106.78 77.18384C104.33704 75.21824000000001,102.84880000000001 73.08416,102.51184 71.17472000000001C102.51184 71.00624,102.51184 70.7816,102.51184 70.5008C102.51184 70.27616,102.51184 69.99536,102.53992000000001 69.88304000000001C102.96112000000001 68.17016000000001,104.56168000000001 67.1312,106.66768 67.1312C107.2012 67.1312,107.81896 67.18736,108.38056 67.35584C108.46480000000001 67.35584,108.54904 67.38392,108.54904 67.38392C108.54904 67.38392,108.54904 67.38392,108.54904 67.38392L108.54904 67.38392C108.54904 67.35584,108.38056 67.18736,108.15592000000001 67.01888L106.9204 65.92376L105.20752 64.35128C103.10152000000001 62.52608,102.98920000000001 62.38568,102.98920000000001 62.24528C102.98920000000001 62.18912,102.98920000000001 62.18912,102.98920000000001 62.16104C102.98920000000001 62.16104,102.98920000000001 62.132960000000004,102.98920000000001 62.132960000000004C102.98920000000001 61.96448,102.98920000000001 61.96448,103.21384 61.627520000000004C104.78632 59.52152,105.60064000000001 57.05048,105.60064000000001 54.83216C105.60064000000001 52.89464,104.98288000000001 51.09752,103.80352 49.890080000000005C103.63504 49.7216,103.57888000000001 49.525040000000004,103.57888000000001 49.41272C103.57888000000001 49.21616,103.69120000000001 49.103840000000005,103.88776 49.019600000000004"/>
          </g>
        </g>
        <g class="vf-modifiers"/>
      </g>
      <g class="vf-ledgers" id="vf-auto1131ledgers">
        <path stroke-width="1" fill="none" stroke="#FFFFFF" stroke-dasharray="none" d="M135.14571953125 93.2L153.16395953125 93.2"/>
      </g>
      <g class="vf-stavenote" id="vf-auto1131">
        <g class="vf-note" pointer-events="bounding-box">
          <g class="vf-stem" pointer-events="bounding-box">
            <path stroke-width="1.5" fill="none" stroke="#FFFFFF" stroke-dasharray="none" class="vf-stem" id="vf-auto1131-stem" d="M149.41395953125 93.2L149.41395953125 58.2"/>
          </g>
          <g class="vf-notehead" pointer-events="bounding-box">
            <path stroke-width="0.3" fill="#FFFFFF" stroke="none" stroke-dasharray="none" d="M138.14571953125 93.2M145.50267953124998 87.97712C145.61499953125 87.97712,145.78347953125 87.97712,145.81155953125 87.97712C145.81155953125 87.97712,145.83963953125 87.97712,145.83963953125 87.97712C145.83963953125 87.97712,146.00811953125 87.97712,146.14851953125 87.97712C148.67571953125 88.11752,150.16395953125 89.77424,150.16395953125 91.85216C150.16395953125 92.86304,149.82699953125 94.01432,148.98459953124998 95.10944C147.38403953124998 97.2716,144.77259953125 98.45096000000001,142.49811953124998 98.45096000000001C140.72907953125 98.45096000000001,139.21275953125 97.74896,138.48267953125 96.31688C138.25803953125 95.75528,138.14571953125 95.22176,138.14571953125 94.63208C138.14571953125 91.57136,141.57147953125 88.17368,145.50267953124998 87.97712"/>
          </g>
        </g>
        <g class="vf-modifiers"/>
      </g>
      <g class="vf-stavenote" id="vf-auto1139">
        <g class="vf-note" pointer-events="bounding-box">
          <g class="vf-stem" pointer-events="bounding-box">
            <path stroke-width="1.5" fill="none" stroke="#FFFFFF" stroke-dasharray="none" class="vf-stem" id="vf-auto1139-stem" d="M197.1518446875 83.2L197.1518446875 48.2"/>
          </g>
          <g class="vf-notehead" pointer-events="bounding-box">
            <path stroke-width="0.3" fill="#FFFFFF" stroke="none" stroke-dasharray="none" d="M185.8836046875 83.2M193.24056468749998 77.97712C193.3528846875 77.97712,193.5213646875 77.97712,193.5494446875 77.97712C193.5494446875 77.97712,193.5775246875 77.97712,193.5775246875 77.97712C193.5775246875 77.97712,193.7460046875 77.97712,193.8864046875 77.97712C196.4136046875 78.11752,197.9018446875 79.77424,197.9018446875 81.85216C197.9018446875 82.86304,197.5648846875 84.01432,196.72248468749999 85.10944C195.12192468749998 87.2716,192.5104846875 88.45096000000001,190.23600468749999 88.45096000000001C188.4669646875 88.45096000000001,186.9506446875 87.74896,186.2205646875 86.31688C185.9959246875 85.75528,185.8836046875 85.22176,185.8836046875 84.63208C185.8836046875 81.57136,189.3093646875 78.17368,193.24056468749998 77.97712"/>
          </g>
        </g>
        <g class="vf-modifiers"/>
      </g>
      <g class="vf-stavenote" id="vf-auto1147">
        <g class="vf-note" pointer-events="bounding-box">
          <g class="vf-stem" pointer-events="bounding-box">
            <path stroke-width="1.5" fill="none" stroke="#FFFFFF" stroke-dasharray="none" class="vf-stem" id="vf-auto1147-stem" d="M244.04012046875 68.2L244.04012046875 33.2"/>
          </g>
          <g class="vf-notehead" pointer-events="bounding-box">
            <path stroke-width="0.3" fill="#FFFFFF" stroke="none" stroke-dasharray="none" d="M232.77188046875 68.2M240.12884046874998 62.97712C240.24116046875 62.97712,240.40964046875 62.97712,240.43772046875 62.97712C240.43772046875 62.97712,240.46580046875 62.97712,240.46580046875 62.97712C240.46580046875 62.97712,240.63428046875 62.97712,240.77468046875 62.97712C243.30188046875 63.11752,244.79012046875 64.77424,244.79012046875 66.85216C244.79012046875 67.86304,244.45316046875 69.01432,243.61076046875 70.10944C242.01020046874999 72.2716,239.39876046875 73.45096000000001,237.12428046875 73.45096000000001C235.35524046875 73.45096000000001,233.83892046875 72.74896,233.10884046875 71.31688C232.88420046875 70.75528,232.77188046875 70.22176,232.77188046875 69.63208C232.77188046875 66.57136,236.19764046875 63.173680000000004,240.12884046874998 62.97712"/>
          </g>
        </g>
        <g class="vf-modifiers"/>
      </g>
    </g>
    <g class="vf-text lyrics">
      <text stroke-width="0.3" fill="#FFFFFF" stroke="none" stroke-dasharray="none" font-family="Times New Roman" font-size="20px" font-weight="normal" font-style="normal" x="134.40445371599176" y="121.19999999999999">Wie</text>
    </g>
    <g class="vf-text lyrics">
      <text stroke-width="0.3" fill="#FFFFFF" stroke="none" stroke-dasharray="none" font-family="Times New Roman" font-size="20px" font-weight="normal" font-style="normal" x="182.39195305698354" y="121.19999999999999">Me</text>
    </g>
    <g class="vf-text lyrics">
      <text stroke-width="0.3" fill="#FFFFFF" stroke="none" stroke-dasharray="none" font-family="Times New Roman" font-size="20px" font-weight="normal" font-style="normal" x="229.52984302297529" y="121.19999999999999">lo</text>
    </g>
    <g class="vf-measure" id="2">
      <path stroke-width="1" fill="none" stroke="#FFFFFF" stroke-dasharray="none" d="M270.99845673896704 43.2L393.384850338967 43.2"/>
      <path stroke-width="1" fill="none" stroke="#FFFFFF" stroke-dasharray="none" d="M270.99845673896704 53.2L393.384850338967 53.2"/>
      <path stroke-width="1" fill="none" stroke="#FFFFFF" stroke-dasharray="none" d="M270.99845673896704 63.2L393.384850338967 63.2"/>
      <path stroke-width="1" fill="none" stroke="#FFFFFF" stroke-dasharray="none" d="M270.99845673896704 73.2L393.384850338967 73.2"/>
      <path stroke-width="1" fill="none" stroke="#FFFFFF" stroke-dasharray="none" d="M270.99845673896704 83.2L393.384850338967 83.2"/>
      <rect stroke-width="0.3" fill="#FFFFFF" stroke="#FFFFFF" stroke-dasharray="none" x="393.384850338967" y="42.7" width="1" height="41"/>
      <g class="vf-stavenote" id="vf-auto1262">
        <g class="vf-note" pointer-events="bounding-box">
          <g class="vf-stem" pointer-events="bounding-box">
            <path stroke-width="1.5" fill="none" stroke="#FFFFFF" stroke-dasharray="none" class="vf-stem" id="vf-auto1262-stem" d="M288.74845673896704 53.2L288.74845673896704 88.2"/>
          </g>
          <g class="vf-notehead" pointer-events="bounding-box">
            <path stroke-width="0.3" fill="#FFFFFF" stroke="none" stroke-dasharray="none" d="M287.99845673896704 53.2M295.35541673896705 47.97712C295.46773673896706 47.97712,295.63621673896705 47.97712,295.66429673896704 47.97712C295.66429673896704 47.97712,295.692376738967 47.97712,295.692376738967 47.97712C295.692376738967 47.97712,295.860856738967 47.97712,296.001256738967 47.97712C298.52845673896707 48.11752,300.016696738967 49.774240000000006,300.016696738967 51.852160000000005C300.016696738967 52.863040000000005,299.67973673896705 54.014320000000005,298.83733673896705 55.109440000000006C297.236776738967 57.27160000000001,294.625336738967 58.45096,292.350856738967 58.45096C290.58181673896706 58.45096,289.06549673896706 57.748960000000004,288.335416738967 56.316880000000005C288.11077673896705 55.755280000000006,287.99845673896704 55.22176,287.99845673896704 54.63208C287.99845673896704 51.571360000000006,291.42421673896706 48.173680000000004,295.35541673896705 47.97712"/>
          </g>
        </g>
        <g class="vf-modifiers"/>
      </g>
      <g class="vf-stavenote" id="vf-auto1270">
        <g class="vf-note" pointer-events="bounding-box">
          <g class="vf-stem" pointer-events="bounding-box">
            <path stroke-width="1.5" fill="none" stroke="#FFFFFF" stroke-dasharray="none" class="vf-stem" id="vf-auto1270-stem" d="M315.49845673896704 58.2L315.49845673896704 93.2"/>
          </g>
          <g class="vf-notehead" pointer-events="bounding-box">
            <path stroke-width="0.3" fill="#FFFFFF" stroke="none" stroke-dasharray="none" d="M314.74845673896704 58.2M322.10541673896705 52.97712C322.21773673896706 52.97712,322.38621673896705 52.97712,322.41429673896704 52.97712C322.41429673896704 52.97712,322.442376738967 52.97712,322.442376738967 52.97712C322.442376738967 52.97712,322.610856738967 52.97712,322.751256738967 52.97712C325.27845673896707 53.11752,326.766696738967 54.774240000000006,326.766696738967 56.852160000000005C326.766696738967 57.863040000000005,326.42973673896705 59.014320000000005,325.58733673896705 60.109440000000006C323.986776738967 62.27160000000001,321.375336738967 63.45096,319.100856738967 63.45096C317.33181673896706 63.45096,315.81549673896706 62.748960000000004,315.085416738967 61.316880000000005C314.86077673896705 60.755280000000006,314.74845673896704 60.22176,314.74845673896704 59.63208C314.74845673896704 56.571360000000006,318.17421673896706 53.173680000000004,322.10541673896705 52.97712"/>
          </g>
        </g>
        <g class="vf-modifiers"/>
      </g>
      <g class="vf-stavenote" id="vf-auto1278">
        <g class="vf-note" pointer-events="bounding-box">
          <g class="vf-stem" pointer-events="bounding-box">
            <path stroke-width="1.5" fill="none" stroke="#FFFFFF" stroke-dasharray="none" class="vf-stem" id="vf-auto1278-stem" d="M342.24845673896704 63.2L342.24845673896704 98.2"/>
          </g>
          <g class="vf-notehead" pointer-events="bounding-box">
            <path stroke-width="0.3" fill="#FFFFFF" stroke="none" stroke-dasharray="none" d="M341.49845673896704 63.2M348.85541673896705 57.97712C348.96773673896706 57.97712,349.13621673896705 57.97712,349.16429673896704 57.97712C349.16429673896704 57.97712,349.192376738967 57.97712,349.192376738967 57.97712C349.192376738967 57.97712,349.360856738967 57.97712,349.501256738967 57.97712C352.02845673896707 58.11752,353.516696738967 59.774240000000006,353.516696738967 61.852160000000005C353.516696738967 62.863040000000005,353.17973673896705 64.01432,352.33733673896705 65.10944C350.736776738967 67.2716,348.125336738967 68.45096000000001,345.850856738967 68.45096000000001C344.08181673896706 68.45096000000001,342.56549673896706 67.74896,341.835416738967 66.31688C341.61077673896705 65.75528,341.49845673896704 65.22176,341.49845673896704 64.63208C341.49845673896704 61.571360000000006,344.92421673896706 58.173680000000004,348.85541673896705 57.97712"/>
          </g>
        </g>
        <g class="vf-modifiers"/>
      </g>
      <g class="vf-stavenote" id="vf-auto1286">
        <g class="vf-note" pointer-events="bounding-box">
          <g class="vf-stem" pointer-events="bounding-box">
            <path stroke-width="1.5" fill="none" stroke="#FFFFFF" stroke-dasharray="none" class="vf-stem" id="vf-auto1286-stem" d="M379.516696738967 68.2L379.516696738967 33.2"/>
          </g>
          <g class="vf-notehead" pointer-events="bounding-box">
            <path stroke-width="0.3" fill="#FFFFFF" stroke="none" stroke-dasharray="none" d="M368.24845673896704 68.2M375.60541673896705 62.97712C375.71773673896706 62.97712,375.88621673896705 62.97712,375.91429673896704 62.97712C375.91429673896704 62.97712,375.942376738967 62.97712,375.942376738967 62.97712C375.942376738967 62.97712,376.110856738967 62.97712,376.251256738967 62.97712C378.77845673896707 63.11752,380.266696738967 64.77424,380.266696738967 66.85216C380.266696738967 67.86304,379.92973673896705 69.01432,379.08733673896705 70.10944C377.486776738967 72.2716,374.875336738967 73.45096000000001,372.600856738967 73.45096000000001C370.83181673896706 73.45096000000001,369.31549673896706 72.74896,368.585416738967 71.31688C368.36077673896705 70.75528,368.24845673896704 70.22176,368.24845673896704 69.63208C368.24845673896704 66.57136,371.67421673896706 63.173680000000004,375.60541673896705 62.97712"/>
          </g>
        </g>
        <g class="vf-modifiers"/>
      </g>
    </g>
    <g class="vf-text lyrics">
      <text stroke-width="0.3" fill="#FFFFFF" stroke="none" stroke-dasharray="none" font-family="Times New Roman" font-size="20px" font-weight="normal" font-style="normal" x="284.00757673896703" y="121.19999999999999">di</text>
    </g>
    <g class="vf-text lyrics">
      <text stroke-width="0.3" fill="#FFFFFF" stroke="none" stroke-dasharray="none" font-family="Times New Roman" font-size="20px" font-weight="normal" font-style="normal" x="337.70077353896704" y="121.19999999999999">en</text>
    </g>
    <g class="vf-measure" id="3">
      <path stroke-width="1" fill="none" stroke="#FFFFFF" stroke-dasharray="none" d="M393.384850338967 43.2L609.03717132176 43.2"/>
      <path stroke-width="1" fill="none" stroke="#FFFFFF" stroke-dasharray="none" d="M393.384850338967 53.2L609.03717132176 53.2"/>
      <path stroke-width="1" fill="none" stroke="#FFFFFF" stroke-dasharray="none" d="M393.384850338967 63.2L609.03717132176 63.2"/>
      <path stroke-width="1" fill="none" stroke="#FFFFFF" stroke-dasharray="none" d="M393.384850338967 73.2L609.03717132176 73.2"/>
      <path stroke-width="1" fill="none" stroke="#FFFFFF" stroke-dasharray="none" d="M393.384850338967 83.2L609.03717132176 83.2"/>
      <rect stroke-width="0.3" fill="#FFFFFF" stroke="#FFFFFF" stroke-dasharray="none" x="609.03717132176" y="42.7" width="1" height="41"/>
      <g class="vf-stavenote" id="vf-auto1395">
        <g class="vf-note" pointer-events="bounding-box">
          <g class="vf-stem" pointer-events="bounding-box">
            <path stroke-width="1.5" fill="none" stroke="#FFFFFF" stroke-dasharray="none" class="vf-stem" id="vf-auto1395-stem" d="M421.653090338967 73.2L421.653090338967 38.2"/>
          </g>
          <g class="vf-notehead" pointer-events="bounding-box">
            <path stroke-width="0.3" fill="#FFFFFF" stroke="none" stroke-dasharray="none" d="M410.384850338967 73.2M417.741810338967 67.97712C417.854130338967 67.97712,418.022610338967 67.97712,418.050690338967 67.97712C418.050690338967 67.97712,418.078770338967 67.97712,418.078770338967 67.97712C418.078770338967 67.97712,418.247250338967 67.97712,418.387650338967 67.97712C420.91485033896697 68.11752,422.403090338967 69.77424,422.403090338967 71.85216C422.403090338967 72.86304,422.066130338967 74.01432,421.223730338967 75.10944C419.623170338967 77.2716,417.011730338967 78.45096000000001,414.737250338967 78.45096000000001C412.968210338967 78.45096000000001,411.451890338967 77.74896,410.721810338967 76.31688C410.497170338967 75.75528,410.384850338967 75.22176,410.384850338967 74.63208C410.384850338967 71.57136,413.810610338967 68.17368,417.741810338967 67.97712M420.662130338967 69.52152000000001C420.549810338967 69.46536,420.409410338967 69.43728,420.269010338967 69.43728C419.398530338967 69.43728,417.938370338967 69.9708,416.534370338967 70.92552C413.922930338967 72.55416,411.788850338967 74.94096,411.704610338967 76.31688C411.704610338967 76.31688,411.704610338967 76.34496,411.704610338967 76.34496C411.704610338967 76.82232,412.013490338967 77.01888,412.54701033896697 77.01888C413.698290338967 77.01888,415.832370338967 76.03608,417.797970338967 74.4636C419.819730338967 72.86304,421.111410338967 71.06592,421.111410338967 70.13928C421.111410338967 69.8304,420.971010338967 69.57768,420.662130338967 69.52152000000001"/>
          </g>
        </g>
        <g class="vf-modifiers"/>
      </g>
      <g class="vf-stavenote" id="vf-auto1403">
        <g class="vf-note" pointer-events="bounding-box">
          <g class="vf-stem" pointer-events="bounding-box">
            <path stroke-width="1.5" fill="none" stroke="#FFFFFF" stroke-dasharray="none" class="vf-stem" id="vf-auto1403-stem" d="M512.643970338967 78.2L512.643970338967 43.2"/>
          </g>
          <g class="vf-notehead" pointer-events="bounding-box">
            <path stroke-width="0.3" fill="#FFFFFF" stroke="none" stroke-dasharray="none" d="M501.375730338967 78.2M508.732690338967 72.97712C508.84501033896703 72.97712,509.013490338967 72.97712,509.041570338967 72.97712C509.041570338967 72.97712,509.069650338967 72.97712,509.069650338967 72.97712C509.069650338967 72.97712,509.238130338967 72.97712,509.378530338967 72.97712C511.90573033896703 73.11752,513.393970338967 74.77424,513.393970338967 76.85216C513.393970338967 77.86304,513.057010338967 79.01432,512.214610338967 80.10944C510.614050338967 82.2716,508.002610338967 83.45096000000001,505.728130338967 83.45096000000001C503.95909033896703 83.45096000000001,502.442770338967 82.74896,501.712690338967 81.31688C501.488050338967 80.75528,501.375730338967 80.22176,501.375730338967 79.63208C501.375730338967 76.57136,504.801490338967 73.17368,508.732690338967 72.97712"/>
          </g>
        </g>
        <g class="vf-modifiers"/>
      </g>
      <g class="vf-stavenote" id="vf-auto1411">
        <g class="vf-note" pointer-events="bounding-box">
          <g class="vf-stem" pointer-events="bounding-box">
            <path stroke-width="1.5" fill="none" stroke="#FFFFFF" stroke-dasharray="none" class="vf-stem" id="vf-auto1411-stem" d="M567.1485303389669 68.2L567.1485303389669 33.2"/>
          </g>
          <g class="vf-notehead" pointer-events="bounding-box">
            <path stroke-width="0.3" fill="#FFFFFF" stroke="none" stroke-dasharray="none" d="M555.8802903389669 68.2M563.2372503389669 62.97712C563.3495703389669 62.97712,563.5180503389669 62.97712,563.5461303389669 62.97712C563.5461303389669 62.97712,563.574210338967 62.97712,563.574210338967 62.97712C563.574210338967 62.97712,563.7426903389669 62.97712,563.8830903389669 62.97712C566.4102903389669 63.11752,567.8985303389669 64.77424,567.8985303389669 66.85216C567.8985303389669 67.86304,567.5615703389669 69.01432,566.7191703389669 70.10944C565.118610338967 72.2716,562.507170338967 73.45096000000001,560.2326903389669 73.45096000000001C558.4636503389669 73.45096000000001,556.9473303389669 72.74896,556.2172503389669 71.31688C555.9926103389669 70.75528,555.8802903389669 70.22176,555.8802903389669 69.63208C555.8802903389669 66.57136,559.3060503389669 63.173680000000004,563.2372503389669 62.97712"/>
          </g>
        </g>
        <g class="vf-modifiers"/>
      </g>
    </g>
    <g class="vf-text lyrics">
      <text stroke-width="0.3" fill="#FFFFFF" stroke="none" stroke-dasharray="none" font-family="Times New Roman" font-size="20px" font-weight="normal" font-style="normal" x="406.393970338967" y="121.19999999999999">zieht</text>
    </g>
    <g class="vf-text lyrics">
      <text stroke-width="0.3" fill="#FFFFFF" stroke="none" stroke-dasharray="none" font-family="Times New Roman" font-size="20px" font-weight="normal" font-style="normal" x="497.7110108303635" y="121.19999999999999">es</text>
    </g>
    <g class="vf-text lyrics">
      <text stroke-width="0.3" fill="#FFFFFF" stroke="none" stroke-dasharray="none" font-family="Times New Roman" font-size="20px" font-weight="normal" font-style="normal" x="552.3786510760617" y="121.19999999999999">mir</text>
    </g>
    <g class="vf-text dash">
      <text stroke-width="0.3" fill="#FFFFFF" stroke="none" stroke-dasharray="none" font-family="Times New Roman" font-size="20px" font-weight="normal" font-style="normal" x="215.7909761649794" y="121.19999999999999">-</text>
    </g>
    <g class="vf-text dash">
      <text stroke-width="0.3" fill="#FFFFFF" stroke="none" stroke-dasharray="none" font-family="Times New Roman" font-size="20px" font-weight="normal" font-style="normal" x="261.04703019347113" y="121.19999999999999">-</text>
    </g>
    <g class="vf-text dash">
      <text stroke-width="0.3" fill="#FFFFFF" stroke="none" stroke-dasharray="none" font-family="Times New Roman" font-size="20px" font-weight="normal" font-style="normal" x="315.132495451467" y="121.19999999999999">-</text>
    </g>
    <g class="vf-text dash">
      <text stroke-width="0.3" fill="#FFFFFF" stroke="none" stroke-dasharray="none" font-family="Times New Roman" font-size="20px" font-weight="normal" font-style="normal" x="215.7909761649794" y="121.19999999999999">-</text>
    </g>
    <g class="vf-text dash">
      <text stroke-width="0.3" fill="#FFFFFF" stroke="none" stroke-dasharray="none" font-family="Times New Roman" font-size="20px" font-weight="normal" font-style="normal" x="261.04703019347113" y="121.19999999999999">-</text>
    </g>
    <g class="vf-text dash">
      <text stroke-width="0.3" fill="#FFFFFF" stroke="none" stroke-dasharray="none" font-family="Times New Roman" font-size="20px" font-weight="normal" font-style="normal" x="315.132495451467" y="121.19999999999999">-</text>
    </g>
    <g class="vf-text">
      <text stroke-width="0.3" fill="#FFFFFF" stroke="none" stroke-dasharray="none" font-family="Times New Roman" font-size="20px" font-weight="bold" font-style="normal" x="20" y="20.200000000000003">Zart</text>
    </g>
    <g class="vf-curve" id="vf-auto1262-slur">
      <path stroke-width="0.3" fill="#FFFFFF" stroke="none" stroke-dasharray="none" d="M294.00757673896703 43.2C298.96028403377767 41.451024984775806,316.8631646977933 44.78531717279759,320.854175138967 48.2L320.854175138967 47.7C316.8631646977933 41.7853171727976,298.96028403377767 38.451024984775806,294.00757673896703 42.7L294.00757673896703 43.2Z"/>
    </g>
    <g class="vf-curve" id="vf-auto1278-slur">
      <path stroke-width="0.3" fill="#FFFFFF" stroke="none" stroke-dasharray="none" d="M347.70077353896704 53.2C350.6012441788561 45.973053122022726,371.8384170308935 29.301592181913794,379.547371938967 28.200000000000003L379.547371938967 27.700000000000003C371.8384170308935 26.301592181913797,350.6012441788561 42.973053122022726,347.70077353896704 52.7L347.70077353896704 53.2Z"/>
    </g>
  </g>
  <g class="vf-text dash">
    <text stroke-width="0.3" fill="#FFFFFF" stroke="none" stroke-dasharray="none" font-family="Times New Roman" font-size="20px" font-weight="normal" font-style="normal" x="215.7909761649794" y="121.19999999999999">-</text>
  </g>
  <g class="vf-text dash">
    <text stroke-width="0.3" fill="#FFFFFF" stroke="none" stroke-dasharray="none" font-family="Times New Roman" font-size="20px" font-weight="normal" font-style="normal" x="261.04703019347113" y="121.19999999999999">-</text>
  </g>
  <g class="vf-text dash">
    <text stroke-width="0.3" fill="#FFFFFF" stroke="none" stroke-dasharray="none" font-family="Times New Roman" font-size="20px" font-weight="normal" font-style="normal" x="315.132495451467" y="121.19999999999999">-</text>
  </g>
  <g class="vf-text dash">
    <text stroke-width="0.3" fill="#FFFFFF" stroke="none" stroke-dasharray="none" font-family="Times New Roman" font-size="20px" font-weight="normal" font-style="normal" x="215.7909761649794" y="121.19999999999999">-</text>
  </g>
  <g class="vf-text dash">
    <text stroke-width="0.3" fill="#FFFFFF" stroke="none" stroke-dasharray="none" font-family="Times New Roman" font-size="20px" font-weight="normal" font-style="normal" x="261.04703019347113" y="121.19999999999999">-</text>
  </g>
  <g class="vf-text dash">
    <text stroke-width="0.3" fill="#FFFFFF" stroke="none" stroke-dasharray="none" font-family="Times New Roman" font-size="20px" font-weight="normal" font-style="normal" x="315.132495451467" y="121.19999999999999">-</text>
  </g>
  <g class="vf-line">
    <path stroke-width="1.2" fill="none" stroke="#FFFFFF" stroke-dasharray="none" d="M368.57772666396704 120.19999999999999L386.565611938967 120.19999999999999"/>
  </g>
  <g class="vf-line">
    <path stroke-width="1.2" fill="none" stroke="#FFFFFF" stroke-dasharray="none" d="M368.57772666396704 120.19999999999999L386.565611938967 120.19999999999999"/>
  </g>
</svg>
